<?xml version="1.0" encoding="UTF-8"?>
<svg xmlns="http://www.w3.org/2000/svg" width="1200" height="1600" viewBox="0 0 1200 1600" role="img" aria-labelledby="title desc">
  <title id="title">PLAY.VEILDAEMON QR</title>
  <desc id="desc">Static QR code for https://play.veildaemon.app/. Error correction H. Scan test required before publishing.</desc>
  <rect width="1200" height="1600" fill="#0A0A0D"/>
  <rect x="70" y="74" width="1060" height="1452" fill="none" stroke="#6B6C72" stroke-width="4"/>
  <rect x="92" y="96" width="1016" height="1408" fill="none" stroke="#6B6C72" stroke-width="1" opacity=".52"/>
  <rect x="114" y="118" width="972" height="1364" fill="none" stroke="#9A3CFF" stroke-width="1" opacity=".42"/>
  <path d="M88 92h118v14H102v104H88V92Z" fill="#6B6C72"/>
  <path d="M1112 92h-118v14h104v104h14V92Z" fill="#6B6C72"/>
  <path d="M88 1508h118v-14H102v-104H88v118Z" fill="#6B6C72"/>
  <path d="M1112 1508h-118v-14h104v-104h14v118Z" fill="#6B6C72"/>
  <path d="M126 138h948M126 1462h948" stroke="#6B6C72" stroke-width="2" stroke-dasharray="18 16" opacity=".75"/>
  <path d="M138 180v1240M1062 180v1240" stroke="#6B6C72" stroke-width="2" stroke-dasharray="18 16" opacity=".5"/>

  <g id="header">
    <text x="600" y="178" fill="#EAEAF2" font-family="Inter, Consolas, monospace" font-size="54" font-weight="700" text-anchor="middle" letter-spacing="3">PLAY.VEILDAEMON</text>
    <text x="600" y="226" fill="#A9AAB2" font-family="Consolas, monospace" font-size="24" text-anchor="middle" letter-spacing="4">PUBLIC STOREFRONT // LIVE</text>
    <path d="M282 260h636" stroke="#9A3CFF" stroke-width="3" stroke-dasharray="32 14"/>
  </g>

  <g id="qr-field">
    <rect x="114.5" y="256" width="971" height="971" fill="#0F0F15" stroke="#6B6C72" stroke-width="4"/>
    <rect x="126.5" y="268" width="947" height="947" fill="none" stroke="#FF3B3B" stroke-width="2" opacity=".48"/>
    <rect x="128.5" y="270" width="943" height="943" fill="#0A0A0D"/>
    <g id="qr-modules" shape-rendering="crispEdges">
      <rect x="220.5" y="362" width="23" height="23" fill="#B8A2BE"/>
      <rect x="243.5" y="362" width="23" height="23" fill="#C9B8D0"/>
      <rect x="266.5" y="362" width="23" height="23" fill="#C9B8D0"/>
      <rect x="289.5" y="362" width="23" height="23" fill="#B8A2BE"/>
      <rect x="312.5" y="362" width="23" height="23" fill="#C9B8D0"/>
      <rect x="335.5" y="362" width="23" height="23" fill="#C9B8D0"/>
      <rect x="358.5" y="362" width="23" height="23" fill="#B8A2BE"/>
      <rect x="404.5" y="362" width="23" height="23" fill="#C9B8D0"/>
      <rect x="496.5" y="362" width="23" height="23" fill="#B8A2BE"/>
      <rect x="542.5" y="362" width="23" height="23" fill="#C9B8D0"/>
      <rect x="565.5" y="362" width="23" height="23" fill="#B8A2BE"/>
      <rect x="588.5" y="362" width="23" height="23" fill="#C9B8D0"/>
      <rect x="611.5" y="362" width="23" height="23" fill="#C9B8D0"/>
      <rect x="634.5" y="362" width="23" height="23" fill="#B8A2BE"/>
      <rect x="680.5" y="362" width="23" height="23" fill="#C9B8D0"/>
      <rect x="726.5" y="362" width="23" height="23" fill="#C9B8D0"/>
      <rect x="749.5" y="362" width="23" height="23" fill="#C9B8D0"/>
      <rect x="772.5" y="362" width="23" height="23" fill="#B8A2BE"/>
      <rect x="818.5" y="362" width="23" height="23" fill="#C9B8D0"/>
      <rect x="841.5" y="362" width="23" height="23" fill="#B8A2BE"/>
      <rect x="864.5" y="362" width="23" height="23" fill="#C9B8D0"/>
      <rect x="887.5" y="362" width="23" height="23" fill="#C9B8D0"/>
      <rect x="910.5" y="362" width="23" height="23" fill="#B8A2BE"/>
      <rect x="933.5" y="362" width="23" height="23" fill="#C9B8D0"/>
      <rect x="956.5" y="362" width="23" height="23" fill="#C9B8D0"/>
      <rect x="220.5" y="385" width="23" height="23" fill="#C9B8D0"/>
      <rect x="358.5" y="385" width="23" height="23" fill="#C9B8D0"/>
      <rect x="450.5" y="385" width="23" height="23" fill="#9A3CFF"/>
      <rect x="519.5" y="385" width="23" height="23" fill="#C9B8D0"/>
      <rect x="565.5" y="385" width="23" height="23" fill="#C9B8D0"/>
      <rect x="611.5" y="385" width="23" height="23" fill="#B8A2BE"/>
      <rect x="703.5" y="385" width="23" height="23" fill="#C9B8D0"/>
      <rect x="726.5" y="385" width="23" height="23" fill="#C9B8D0"/>
      <rect x="749.5" y="385" width="23" height="23" fill="#B8A2BE"/>
      <rect x="818.5" y="385" width="23" height="23" fill="#B8A2BE"/>
      <rect x="956.5" y="385" width="23" height="23" fill="#B8A2BE"/>
      <rect x="220.5" y="408" width="23" height="23" fill="#C9B8D0"/>
      <rect x="266.5" y="408" width="23" height="23" fill="#C9B8D0"/>
      <rect x="289.5" y="408" width="23" height="23" fill="#C9B8D0"/>
      <rect x="312.5" y="408" width="23" height="23" fill="#B8A2BE"/>
      <rect x="358.5" y="408" width="23" height="23" fill="#C9B8D0"/>
      <rect x="473.5" y="408" width="23" height="23" fill="#C9B8D0"/>
      <rect x="519.5" y="408" width="23" height="23" fill="#B8A2BE"/>
      <rect x="542.5" y="408" width="23" height="23" fill="#C9B8D0"/>
      <rect x="588.5" y="408" width="23" height="23" fill="#B8A2BE"/>
      <rect x="611.5" y="408" width="23" height="23" fill="#C9B8D0"/>
      <rect x="749.5" y="408" width="23" height="23" fill="#C9B8D0"/>
      <rect x="772.5" y="408" width="23" height="23" fill="#C9B8D0"/>
      <rect x="818.5" y="408" width="23" height="23" fill="#C9B8D0"/>
      <rect x="864.5" y="408" width="23" height="23" fill="#B8A2BE"/>
      <rect x="887.5" y="408" width="23" height="23" fill="#C9B8D0"/>
      <rect x="910.5" y="408" width="23" height="23" fill="#C9B8D0"/>
      <rect x="956.5" y="408" width="23" height="23" fill="#C9B8D0"/>
      <rect x="220.5" y="431" width="23" height="23" fill="#B8A2BE"/>
      <rect x="266.5" y="431" width="23" height="23" fill="#C9B8D0"/>
      <rect x="289.5" y="431" width="23" height="23" fill="#B8A2BE"/>
      <rect x="312.5" y="431" width="23" height="23" fill="#C9B8D0"/>
      <rect x="358.5" y="431" width="23" height="23" fill="#B8A2BE"/>
      <rect x="404.5" y="431" width="23" height="23" fill="#C9B8D0"/>
      <rect x="473.5" y="431" width="23" height="23" fill="#C9B8D0"/>
      <rect x="542.5" y="431" width="23" height="23" fill="#C9B8D0"/>
      <rect x="611.5" y="431" width="23" height="23" fill="#C9B8D0"/>
      <rect x="680.5" y="431" width="23" height="23" fill="#C9B8D0"/>
      <rect x="726.5" y="431" width="23" height="23" fill="#C9B8D0"/>
      <rect x="772.5" y="431" width="23" height="23" fill="#B8A2BE"/>
      <rect x="818.5" y="431" width="23" height="23" fill="#C9B8D0"/>
      <rect x="864.5" y="431" width="23" height="23" fill="#C9B8D0"/>
      <rect x="887.5" y="431" width="23" height="23" fill="#C9B8D0"/>
      <rect x="910.5" y="431" width="23" height="23" fill="#B8A2BE"/>
      <rect x="956.5" y="431" width="23" height="23" fill="#C9B8D0"/>
      <rect x="220.5" y="454" width="23" height="23" fill="#C9B8D0"/>
      <rect x="266.5" y="454" width="23" height="23" fill="#B8A2BE"/>
      <rect x="289.5" y="454" width="23" height="23" fill="#C9B8D0"/>
      <rect x="312.5" y="454" width="23" height="23" fill="#C9B8D0"/>
      <rect x="358.5" y="454" width="23" height="23" fill="#C9B8D0"/>
      <rect x="427.5" y="454" width="23" height="23" fill="#C9B8D0"/>
      <rect x="473.5" y="454" width="23" height="23" fill="#B8A2BE"/>
      <rect x="496.5" y="454" width="23" height="23" fill="#C9B8D0"/>
      <rect x="588.5" y="454" width="23" height="23" fill="#C9B8D0"/>
      <rect x="611.5" y="454" width="23" height="23" fill="#B8A2BE"/>
      <rect x="634.5" y="454" width="23" height="23" fill="#C9B8D0"/>
      <rect x="657.5" y="454" width="23" height="23" fill="#C9B8D0"/>
      <rect x="703.5" y="454" width="23" height="23" fill="#C9B8D0"/>
      <rect x="726.5" y="454" width="23" height="23" fill="#C9B8D0"/>
      <rect x="772.5" y="454" width="23" height="23" fill="#C9B8D0"/>
      <rect x="818.5" y="454" width="23" height="23" fill="#B8A2BE"/>
      <rect x="864.5" y="454" width="23" height="23" fill="#C9B8D0"/>
      <rect x="887.5" y="454" width="23" height="23" fill="#B8A2BE"/>
      <rect x="910.5" y="454" width="23" height="23" fill="#C9B8D0"/>
      <rect x="956.5" y="454" width="23" height="23" fill="#B8A2BE"/>
      <rect x="220.5" y="477" width="23" height="23" fill="#C9B8D0"/>
      <rect x="358.5" y="477" width="23" height="23" fill="#C9B8D0"/>
      <rect x="519.5" y="477" width="23" height="23" fill="#B8A2BE"/>
      <rect x="542.5" y="477" width="23" height="23" fill="#C9B8D0"/>
      <rect x="565.5" y="477" width="23" height="23" fill="#C9B8D0"/>
      <rect x="588.5" y="477" width="23" height="23" fill="#B8A2BE"/>
      <rect x="680.5" y="477" width="23" height="23" fill="#C9B8D0"/>
      <rect x="726.5" y="477" width="23" height="23" fill="#B8A2BE"/>
      <rect x="749.5" y="477" width="23" height="23" fill="#C9B8D0"/>
      <rect x="772.5" y="477" width="23" height="23" fill="#C9B8D0"/>
      <rect x="818.5" y="477" width="23" height="23" fill="#C9B8D0"/>
      <rect x="956.5" y="477" width="23" height="23" fill="#C9B8D0"/>
      <rect x="220.5" y="500" width="23" height="23" fill="#B8A2BE"/>
      <rect x="243.5" y="500" width="23" height="23" fill="#C9B8D0"/>
      <rect x="266.5" y="500" width="23" height="23" fill="#C9B8D0"/>
      <rect x="289.5" y="500" width="23" height="23" fill="#B8A2BE"/>
      <rect x="312.5" y="500" width="23" height="23" fill="#C9B8D0"/>
      <rect x="335.5" y="500" width="23" height="23" fill="#C9B8D0"/>
      <rect x="358.5" y="500" width="23" height="23" fill="#B8A2BE"/>
      <rect x="404.5" y="500" width="23" height="23" fill="#C9B8D0"/>
      <rect x="450.5" y="500" width="23" height="23" fill="#C9B8D0"/>
      <rect x="496.5" y="500" width="23" height="23" fill="#B8A2BE"/>
      <rect x="542.5" y="500" width="23" height="23" fill="#C9B8D0"/>
      <rect x="588.5" y="500" width="23" height="23" fill="#C9B8D0"/>
      <rect x="634.5" y="500" width="23" height="23" fill="#B8A2BE"/>
      <rect x="680.5" y="500" width="23" height="23" fill="#C9B8D0"/>
      <rect x="726.5" y="500" width="23" height="23" fill="#C9B8D0"/>
      <rect x="772.5" y="500" width="23" height="23" fill="#B8A2BE"/>
      <rect x="818.5" y="500" width="23" height="23" fill="#C9B8D0"/>
      <rect x="841.5" y="500" width="23" height="23" fill="#B8A2BE"/>
      <rect x="864.5" y="500" width="23" height="23" fill="#C9B8D0"/>
      <rect x="887.5" y="500" width="23" height="23" fill="#C9B8D0"/>
      <rect x="910.5" y="500" width="23" height="23" fill="#B8A2BE"/>
      <rect x="933.5" y="500" width="23" height="23" fill="#C9B8D0"/>
      <rect x="956.5" y="500" width="23" height="23" fill="#C9B8D0"/>
      <rect x="450.5" y="523" width="23" height="23" fill="#C9B8D0"/>
      <rect x="496.5" y="523" width="23" height="23" fill="#C9B8D0"/>
      <rect x="519.5" y="523" width="23" height="23" fill="#C9B8D0"/>
      <rect x="565.5" y="523" width="23" height="23" fill="#C9B8D0"/>
      <rect x="611.5" y="523" width="23" height="23" fill="#B8A2BE"/>
      <rect x="634.5" y="523" width="23" height="23" fill="#C9B8D0"/>
      <rect x="657.5" y="523" width="23" height="23" fill="#C9B8D0"/>
      <rect x="703.5" y="523" width="23" height="23" fill="#C9B8D0"/>
      <rect x="749.5" y="523" width="23" height="23" fill="#B8A2BE"/>
      <rect x="266.5" y="546" width="23" height="23" fill="#C9B8D0"/>
      <rect x="312.5" y="546" width="23" height="23" fill="#B8A2BE"/>
      <rect x="335.5" y="546" width="23" height="23" fill="#C9B8D0"/>
      <rect x="358.5" y="546" width="23" height="23" fill="#C9B8D0"/>
      <rect x="404.5" y="546" width="23" height="23" fill="#C9B8D0"/>
      <rect x="427.5" y="546" width="23" height="23" fill="#C9B8D0"/>
      <rect x="450.5" y="546" width="23" height="23" fill="#B8A2BE"/>
      <rect x="473.5" y="546" width="23" height="23" fill="#C9B8D0"/>
      <rect x="496.5" y="546" width="23" height="23" fill="#C9B8D0"/>
      <rect x="519.5" y="546" width="23" height="23" fill="#B8A2BE"/>
      <rect x="565.5" y="546" width="23" height="23" fill="#C9B8D0"/>
      <rect x="588.5" y="546" width="23" height="23" fill="#B8A2BE"/>
      <rect x="634.5" y="546" width="23" height="23" fill="#C9B8D0"/>
      <rect x="680.5" y="546" width="23" height="23" fill="#C9B8D0"/>
      <rect x="703.5" y="546" width="23" height="23" fill="#9A3CFF"/>
      <rect x="772.5" y="546" width="23" height="23" fill="#C9B8D0"/>
      <rect x="795.5" y="546" width="23" height="23" fill="#B8A2BE"/>
      <rect x="887.5" y="546" width="23" height="23" fill="#C9B8D0"/>
      <rect x="956.5" y="546" width="23" height="23" fill="#C9B8D0"/>
      <rect x="220.5" y="569" width="23" height="23" fill="#B8A2BE"/>
      <rect x="243.5" y="569" width="23" height="23" fill="#C9B8D0"/>
      <rect x="266.5" y="569" width="23" height="23" fill="#C9B8D0"/>
      <rect x="381.5" y="569" width="23" height="23" fill="#C9B8D0"/>
      <rect x="473.5" y="569" width="23" height="23" fill="#C9B8D0"/>
      <rect x="496.5" y="569" width="23" height="23" fill="#B8A2BE"/>
      <rect x="519.5" y="569" width="23" height="23" fill="#C9B8D0"/>
      <rect x="542.5" y="569" width="23" height="23" fill="#C9B8D0"/>
      <rect x="565.5" y="569" width="23" height="23" fill="#B8A2BE"/>
      <rect x="588.5" y="569" width="23" height="23" fill="#C9B8D0"/>
      <rect x="657.5" y="569" width="23" height="23" fill="#C9B8D0"/>
      <rect x="818.5" y="569" width="23" height="23" fill="#C9B8D0"/>
      <rect x="933.5" y="569" width="23" height="23" fill="#C9B8D0"/>
      <rect x="956.5" y="569" width="23" height="23" fill="#C9B8D0"/>
      <rect x="266.5" y="592" width="23" height="23" fill="#B8A2BE"/>
      <rect x="289.5" y="592" width="23" height="23" fill="#C9B8D0"/>
      <rect x="312.5" y="592" width="23" height="23" fill="#C9B8D0"/>
      <rect x="358.5" y="592" width="23" height="23" fill="#C9B8D0"/>
      <rect x="381.5" y="592" width="23" height="23" fill="#C9B8D0"/>
      <rect x="404.5" y="592" width="23" height="23" fill="#B8A2BE"/>
      <rect x="450.5" y="592" width="23" height="23" fill="#C9B8D0"/>
      <rect x="519.5" y="592" width="23" height="23" fill="#C9B8D0"/>
      <rect x="542.5" y="592" width="23" height="23" fill="#B8A2BE"/>
      <rect x="634.5" y="592" width="23" height="23" fill="#C9B8D0"/>
      <rect x="703.5" y="592" width="23" height="23" fill="#C9B8D0"/>
      <rect x="772.5" y="592" width="23" height="23" fill="#C9B8D0"/>
      <rect x="864.5" y="592" width="23" height="23" fill="#C9B8D0"/>
      <rect x="910.5" y="592" width="23" height="23" fill="#C9B8D0"/>
      <rect x="933.5" y="592" width="23" height="23" fill="#C9B8D0"/>
      <rect x="956.5" y="592" width="23" height="23" fill="#B8A2BE"/>
      <rect x="335.5" y="615" width="23" height="23" fill="#C9B8D0"/>
      <rect x="473.5" y="615" width="23" height="23" fill="#C9B8D0"/>
      <rect x="496.5" y="615" width="23" height="23" fill="#C9B8D0"/>
      <rect x="611.5" y="615" width="23" height="23" fill="#C9B8D0"/>
      <rect x="634.5" y="615" width="23" height="23" fill="#C9B8D0"/>
      <rect x="772.5" y="615" width="23" height="23" fill="#C9B8D0"/>
      <rect x="933.5" y="615" width="23" height="23" fill="#B8A2BE"/>
      <rect x="266.5" y="638" width="23" height="23" fill="#C9B8D0"/>
      <rect x="358.5" y="638" width="23" height="23" fill="#B8A2BE"/>
      <rect x="519.5" y="638" width="23" height="23" fill="#C9B8D0"/>
      <rect x="542.5" y="638" width="23" height="23" fill="#C9B8D0"/>
      <rect x="588.5" y="638" width="23" height="23" fill="#C9B8D0"/>
      <rect x="611.5" y="638" width="23" height="23" fill="#C9B8D0"/>
      <rect x="749.5" y="638" width="23" height="23" fill="#C9B8D0"/>
      <rect x="772.5" y="638" width="23" height="23" fill="#B8A2BE"/>
      <rect x="818.5" y="638" width="23" height="23" fill="#C9B8D0"/>
      <rect x="864.5" y="638" width="23" height="23" fill="#C9B8D0"/>
      <rect x="956.5" y="638" width="23" height="23" fill="#C9B8D0"/>
      <rect x="220.5" y="661" width="23" height="23" fill="#9A3CFF"/>
      <rect x="266.5" y="661" width="23" height="23" fill="#B8A2BE"/>
      <rect x="289.5" y="661" width="23" height="23" fill="#C9B8D0"/>
      <rect x="312.5" y="661" width="23" height="23" fill="#C9B8D0"/>
      <rect x="450.5" y="661" width="23" height="23" fill="#C9B8D0"/>
      <rect x="496.5" y="661" width="23" height="23" fill="#C9B8D0"/>
      <rect x="611.5" y="661" width="23" height="23" fill="#9A3CFF"/>
      <rect x="657.5" y="661" width="23" height="23" fill="#C9B8D0"/>
      <rect x="680.5" y="661" width="23" height="23" fill="#B8A2BE"/>
      <rect x="772.5" y="661" width="23" height="23" fill="#C9B8D0"/>
      <rect x="795.5" y="661" width="23" height="23" fill="#C9B8D0"/>
      <rect x="818.5" y="661" width="23" height="23" fill="#B8A2BE"/>
      <rect x="864.5" y="661" width="23" height="23" fill="#C9B8D0"/>
      <rect x="887.5" y="661" width="23" height="23" fill="#B8A2BE"/>
      <rect x="933.5" y="661" width="23" height="23" fill="#C9B8D0"/>
      <rect x="956.5" y="661" width="23" height="23" fill="#B8A2BE"/>
      <rect x="266.5" y="684" width="23" height="23" fill="#C9B8D0"/>
      <rect x="312.5" y="684" width="23" height="23" fill="#B8A2BE"/>
      <rect x="358.5" y="684" width="23" height="23" fill="#C9B8D0"/>
      <rect x="404.5" y="684" width="23" height="23" fill="#C9B8D0"/>
      <rect x="473.5" y="684" width="23" height="23" fill="#C9B8D0"/>
      <rect x="542.5" y="684" width="23" height="23" fill="#C9B8D0"/>
      <rect x="565.5" y="684" width="23" height="23" fill="#C9B8D0"/>
      <rect x="657.5" y="684" width="23" height="23" fill="#B8A2BE"/>
      <rect x="680.5" y="684" width="23" height="23" fill="#C9B8D0"/>
      <rect x="703.5" y="684" width="23" height="23" fill="#C9B8D0"/>
      <rect x="772.5" y="684" width="23" height="23" fill="#C9B8D0"/>
      <rect x="795.5" y="684" width="23" height="23" fill="#9A3CFF"/>
      <rect x="910.5" y="684" width="23" height="23" fill="#C9B8D0"/>
      <rect x="933.5" y="684" width="23" height="23" fill="#B8A2BE"/>
      <rect x="956.5" y="684" width="23" height="23" fill="#C9B8D0"/>
      <rect x="243.5" y="707" width="23" height="23" fill="#C9B8D0"/>
      <rect x="289.5" y="707" width="23" height="23" fill="#B8A2BE"/>
      <rect x="335.5" y="707" width="23" height="23" fill="#C9B8D0"/>
      <rect x="450.5" y="707" width="23" height="23" fill="#C9B8D0"/>
      <rect x="519.5" y="707" width="23" height="23" fill="#C9B8D0"/>
      <rect x="611.5" y="707" width="23" height="23" fill="#C9B8D0"/>
      <rect x="634.5" y="707" width="23" height="23" fill="#B8A2BE"/>
      <rect x="703.5" y="707" width="23" height="23" fill="#B8A2BE"/>
      <rect x="726.5" y="707" width="23" height="23" fill="#C9B8D0"/>
      <rect x="772.5" y="707" width="23" height="23" fill="#B8A2BE"/>
      <rect x="864.5" y="707" width="23" height="23" fill="#C9B8D0"/>
      <rect x="887.5" y="707" width="23" height="23" fill="#C9B8D0"/>
      <rect x="933.5" y="707" width="23" height="23" fill="#C9B8D0"/>
      <rect x="220.5" y="730" width="23" height="23" fill="#C9B8D0"/>
      <rect x="266.5" y="730" width="23" height="23" fill="#B8A2BE"/>
      <rect x="312.5" y="730" width="23" height="23" fill="#C9B8D0"/>
      <rect x="358.5" y="730" width="23" height="23" fill="#C9B8D0"/>
      <rect x="404.5" y="730" width="23" height="23" fill="#B8A2BE"/>
      <rect x="450.5" y="730" width="23" height="23" fill="#C9B8D0"/>
      <rect x="473.5" y="730" width="23" height="23" fill="#B8A2BE"/>
      <rect x="565.5" y="730" width="23" height="23" fill="#C9B8D0"/>
      <rect x="588.5" y="730" width="23" height="23" fill="#C9B8D0"/>
      <rect x="611.5" y="730" width="23" height="23" fill="#B8A2BE"/>
      <rect x="680.5" y="730" width="23" height="23" fill="#B8A2BE"/>
      <rect x="703.5" y="730" width="23" height="23" fill="#C9B8D0"/>
      <rect x="726.5" y="730" width="23" height="23" fill="#C9B8D0"/>
      <rect x="795.5" y="730" width="23" height="23" fill="#C9B8D0"/>
      <rect x="818.5" y="730" width="23" height="23" fill="#B8A2BE"/>
      <rect x="933.5" y="730" width="23" height="23" fill="#C9B8D0"/>
      <rect x="266.5" y="753" width="23" height="23" fill="#C9B8D0"/>
      <rect x="289.5" y="753" width="23" height="23" fill="#C9B8D0"/>
      <rect x="335.5" y="753" width="23" height="23" fill="#C9B8D0"/>
      <rect x="404.5" y="753" width="23" height="23" fill="#C9B8D0"/>
      <rect x="611.5" y="753" width="23" height="23" fill="#C9B8D0"/>
      <rect x="634.5" y="753" width="23" height="23" fill="#C9B8D0"/>
      <rect x="680.5" y="753" width="23" height="23" fill="#C9B8D0"/>
      <rect x="795.5" y="753" width="23" height="23" fill="#B8A2BE"/>
      <rect x="818.5" y="753" width="23" height="23" fill="#C9B8D0"/>
      <rect x="887.5" y="753" width="23" height="23" fill="#C9B8D0"/>
      <rect x="910.5" y="753" width="23" height="23" fill="#C9B8D0"/>
      <rect x="956.5" y="753" width="23" height="23" fill="#C9B8D0"/>
      <rect x="243.5" y="776" width="23" height="23" fill="#C9B8D0"/>
      <rect x="266.5" y="776" width="23" height="23" fill="#C9B8D0"/>
      <rect x="312.5" y="776" width="23" height="23" fill="#C9B8D0"/>
      <rect x="335.5" y="776" width="23" height="23" fill="#C9B8D0"/>
      <rect x="358.5" y="776" width="23" height="23" fill="#B8A2BE"/>
      <rect x="381.5" y="776" width="23" height="23" fill="#C9B8D0"/>
      <rect x="542.5" y="776" width="23" height="23" fill="#C9B8D0"/>
      <rect x="565.5" y="776" width="23" height="23" fill="#B8A2BE"/>
      <rect x="588.5" y="776" width="23" height="23" fill="#C9B8D0"/>
      <rect x="611.5" y="776" width="23" height="23" fill="#C9B8D0"/>
      <rect x="657.5" y="776" width="23" height="23" fill="#C9B8D0"/>
      <rect x="726.5" y="776" width="23" height="23" fill="#C9B8D0"/>
      <rect x="818.5" y="776" width="23" height="23" fill="#C9B8D0"/>
      <rect x="841.5" y="776" width="23" height="23" fill="#B8A2BE"/>
      <rect x="864.5" y="776" width="23" height="23" fill="#C9B8D0"/>
      <rect x="910.5" y="776" width="23" height="23" fill="#B8A2BE"/>
      <rect x="933.5" y="776" width="23" height="23" fill="#C9B8D0"/>
      <rect x="956.5" y="776" width="23" height="23" fill="#C9B8D0"/>
      <rect x="289.5" y="799" width="23" height="23" fill="#C9B8D0"/>
      <rect x="381.5" y="799" width="23" height="23" fill="#C9B8D0"/>
      <rect x="404.5" y="799" width="23" height="23" fill="#B8A2BE"/>
      <rect x="427.5" y="799" width="23" height="23" fill="#C9B8D0"/>
      <rect x="450.5" y="799" width="23" height="23" fill="#C9B8D0"/>
      <rect x="611.5" y="799" width="23" height="23" fill="#B8A2BE"/>
      <rect x="634.5" y="799" width="23" height="23" fill="#C9B8D0"/>
      <rect x="657.5" y="799" width="23" height="23" fill="#C9B8D0"/>
      <rect x="703.5" y="799" width="23" height="23" fill="#C9B8D0"/>
      <rect x="726.5" y="799" width="23" height="23" fill="#C9B8D0"/>
      <rect x="933.5" y="799" width="23" height="23" fill="#C9B8D0"/>
      <rect x="243.5" y="822" width="23" height="23" fill="#B8A2BE"/>
      <rect x="266.5" y="822" width="23" height="23" fill="#C9B8D0"/>
      <rect x="312.5" y="822" width="23" height="23" fill="#B8A2BE"/>
      <rect x="335.5" y="822" width="23" height="23" fill="#C9B8D0"/>
      <rect x="358.5" y="822" width="23" height="23" fill="#C9B8D0"/>
      <rect x="381.5" y="822" width="23" height="23" fill="#B8A2BE"/>
      <rect x="404.5" y="822" width="23" height="23" fill="#9A3CFF"/>
      <rect x="450.5" y="822" width="23" height="23" fill="#B8A2BE"/>
      <rect x="473.5" y="822" width="23" height="23" fill="#C9B8D0"/>
      <rect x="519.5" y="822" width="23" height="23" fill="#B8A2BE"/>
      <rect x="565.5" y="822" width="23" height="23" fill="#C9B8D0"/>
      <rect x="634.5" y="822" width="23" height="23" fill="#C9B8D0"/>
      <rect x="657.5" y="822" width="23" height="23" fill="#B8A2BE"/>
      <rect x="680.5" y="822" width="23" height="23" fill="#C9B8D0"/>
      <rect x="703.5" y="822" width="23" height="23" fill="#C9B8D0"/>
      <rect x="772.5" y="822" width="23" height="23" fill="#C9B8D0"/>
      <rect x="818.5" y="822" width="23" height="23" fill="#C9B8D0"/>
      <rect x="841.5" y="822" width="23" height="23" fill="#C9B8D0"/>
      <rect x="887.5" y="822" width="23" height="23" fill="#C9B8D0"/>
      <rect x="956.5" y="822" width="23" height="23" fill="#C9B8D0"/>
      <rect x="243.5" y="845" width="23" height="23" fill="#9A3CFF"/>
      <rect x="266.5" y="845" width="23" height="23" fill="#C9B8D0"/>
      <rect x="312.5" y="845" width="23" height="23" fill="#C9B8D0"/>
      <rect x="404.5" y="845" width="23" height="23" fill="#C9B8D0"/>
      <rect x="427.5" y="845" width="23" height="23" fill="#B8A2BE"/>
      <rect x="496.5" y="845" width="23" height="23" fill="#B8A2BE"/>
      <rect x="565.5" y="845" width="23" height="23" fill="#B8A2BE"/>
      <rect x="588.5" y="845" width="23" height="23" fill="#C9B8D0"/>
      <rect x="611.5" y="845" width="23" height="23" fill="#C9B8D0"/>
      <rect x="634.5" y="845" width="23" height="23" fill="#B8A2BE"/>
      <rect x="703.5" y="845" width="23" height="23" fill="#B8A2BE"/>
      <rect x="749.5" y="845" width="23" height="23" fill="#C9B8D0"/>
      <rect x="772.5" y="845" width="23" height="23" fill="#9A3CFF"/>
      <rect x="910.5" y="845" width="23" height="23" fill="#B8A2BE"/>
      <rect x="933.5" y="845" width="23" height="23" fill="#C9B8D0"/>
      <rect x="956.5" y="845" width="23" height="23" fill="#C9B8D0"/>
      <rect x="220.5" y="868" width="23" height="23" fill="#C9B8D0"/>
      <rect x="266.5" y="868" width="23" height="23" fill="#B8A2BE"/>
      <rect x="289.5" y="868" width="23" height="23" fill="#C9B8D0"/>
      <rect x="312.5" y="868" width="23" height="23" fill="#9A3CFF"/>
      <rect x="358.5" y="868" width="23" height="23" fill="#C9B8D0"/>
      <rect x="381.5" y="868" width="23" height="23" fill="#C9B8D0"/>
      <rect x="427.5" y="868" width="23" height="23" fill="#C9B8D0"/>
      <rect x="450.5" y="868" width="23" height="23" fill="#C9B8D0"/>
      <rect x="519.5" y="868" width="23" height="23" fill="#C9B8D0"/>
      <rect x="542.5" y="868" width="23" height="23" fill="#B8A2BE"/>
      <rect x="588.5" y="868" width="23" height="23" fill="#C9B8D0"/>
      <rect x="611.5" y="868" width="23" height="23" fill="#B8A2BE"/>
      <rect x="634.5" y="868" width="23" height="23" fill="#C9B8D0"/>
      <rect x="657.5" y="868" width="23" height="23" fill="#C9B8D0"/>
      <rect x="726.5" y="868" width="23" height="23" fill="#C9B8D0"/>
      <rect x="749.5" y="868" width="23" height="23" fill="#B8A2BE"/>
      <rect x="772.5" y="868" width="23" height="23" fill="#C9B8D0"/>
      <rect x="818.5" y="868" width="23" height="23" fill="#B8A2BE"/>
      <rect x="841.5" y="868" width="23" height="23" fill="#C9B8D0"/>
      <rect x="864.5" y="868" width="23" height="23" fill="#C9B8D0"/>
      <rect x="910.5" y="868" width="23" height="23" fill="#C9B8D0"/>
      <rect x="933.5" y="868" width="23" height="23" fill="#C9B8D0"/>
      <rect x="956.5" y="868" width="23" height="23" fill="#B8A2BE"/>
      <rect x="243.5" y="891" width="23" height="23" fill="#B8A2BE"/>
      <rect x="266.5" y="891" width="23" height="23" fill="#C9B8D0"/>
      <rect x="289.5" y="891" width="23" height="23" fill="#C9B8D0"/>
      <rect x="335.5" y="891" width="23" height="23" fill="#C9B8D0"/>
      <rect x="381.5" y="891" width="23" height="23" fill="#B8A2BE"/>
      <rect x="473.5" y="891" width="23" height="23" fill="#C9B8D0"/>
      <rect x="496.5" y="891" width="23" height="23" fill="#C9B8D0"/>
      <rect x="565.5" y="891" width="23" height="23" fill="#C9B8D0"/>
      <rect x="588.5" y="891" width="23" height="23" fill="#B8A2BE"/>
      <rect x="657.5" y="891" width="23" height="23" fill="#B8A2BE"/>
      <rect x="680.5" y="891" width="23" height="23" fill="#C9B8D0"/>
      <rect x="703.5" y="891" width="23" height="23" fill="#C9B8D0"/>
      <rect x="726.5" y="891" width="23" height="23" fill="#B8A2BE"/>
      <rect x="772.5" y="891" width="23" height="23" fill="#C9B8D0"/>
      <rect x="795.5" y="891" width="23" height="23" fill="#B8A2BE"/>
      <rect x="841.5" y="891" width="23" height="23" fill="#C9B8D0"/>
      <rect x="933.5" y="891" width="23" height="23" fill="#9A3CFF"/>
      <rect x="220.5" y="914" width="23" height="23" fill="#B8A2BE"/>
      <rect x="266.5" y="914" width="23" height="23" fill="#C9B8D0"/>
      <rect x="312.5" y="914" width="23" height="23" fill="#C9B8D0"/>
      <rect x="358.5" y="914" width="23" height="23" fill="#B8A2BE"/>
      <rect x="381.5" y="914" width="23" height="23" fill="#C9B8D0"/>
      <rect x="404.5" y="914" width="23" height="23" fill="#C9B8D0"/>
      <rect x="450.5" y="914" width="23" height="23" fill="#C9B8D0"/>
      <rect x="519.5" y="914" width="23" height="23" fill="#C9B8D0"/>
      <rect x="588.5" y="914" width="23" height="23" fill="#C9B8D0"/>
      <rect x="634.5" y="914" width="23" height="23" fill="#B8A2BE"/>
      <rect x="703.5" y="914" width="23" height="23" fill="#B8A2BE"/>
      <rect x="749.5" y="914" width="23" height="23" fill="#C9B8D0"/>
      <rect x="772.5" y="914" width="23" height="23" fill="#B8A2BE"/>
      <rect x="795.5" y="914" width="23" height="23" fill="#C9B8D0"/>
      <rect x="818.5" y="914" width="23" height="23" fill="#C9B8D0"/>
      <rect x="841.5" y="914" width="23" height="23" fill="#B8A2BE"/>
      <rect x="864.5" y="914" width="23" height="23" fill="#C9B8D0"/>
      <rect x="933.5" y="914" width="23" height="23" fill="#C9B8D0"/>
      <rect x="404.5" y="937" width="23" height="23" fill="#B8A2BE"/>
      <rect x="450.5" y="937" width="23" height="23" fill="#C9B8D0"/>
      <rect x="496.5" y="937" width="23" height="23" fill="#C9B8D0"/>
      <rect x="519.5" y="937" width="23" height="23" fill="#C9B8D0"/>
      <rect x="588.5" y="937" width="23" height="23" fill="#C9B8D0"/>
      <rect x="657.5" y="937" width="23" height="23" fill="#C9B8D0"/>
      <rect x="680.5" y="937" width="23" height="23" fill="#B8A2BE"/>
      <rect x="703.5" y="937" width="23" height="23" fill="#C9B8D0"/>
      <rect x="726.5" y="937" width="23" height="23" fill="#C9B8D0"/>
      <rect x="749.5" y="937" width="23" height="23" fill="#B8A2BE"/>
      <rect x="772.5" y="937" width="23" height="23" fill="#C9B8D0"/>
      <rect x="864.5" y="937" width="23" height="23" fill="#C9B8D0"/>
      <rect x="887.5" y="937" width="23" height="23" fill="#B8A2BE"/>
      <rect x="956.5" y="937" width="23" height="23" fill="#B8A2BE"/>
      <rect x="220.5" y="960" width="23" height="23" fill="#C9B8D0"/>
      <rect x="243.5" y="960" width="23" height="23" fill="#B8A2BE"/>
      <rect x="266.5" y="960" width="23" height="23" fill="#C9B8D0"/>
      <rect x="289.5" y="960" width="23" height="23" fill="#C9B8D0"/>
      <rect x="312.5" y="960" width="23" height="23" fill="#B8A2BE"/>
      <rect x="335.5" y="960" width="23" height="23" fill="#C9B8D0"/>
      <rect x="358.5" y="960" width="23" height="23" fill="#C9B8D0"/>
      <rect x="427.5" y="960" width="23" height="23" fill="#C9B8D0"/>
      <rect x="473.5" y="960" width="23" height="23" fill="#C9B8D0"/>
      <rect x="496.5" y="960" width="23" height="23" fill="#C9B8D0"/>
      <rect x="542.5" y="960" width="23" height="23" fill="#C9B8D0"/>
      <rect x="565.5" y="960" width="23" height="23" fill="#C9B8D0"/>
      <rect x="588.5" y="960" width="23" height="23" fill="#B8A2BE"/>
      <rect x="611.5" y="960" width="23" height="23" fill="#C9B8D0"/>
      <rect x="657.5" y="960" width="23" height="23" fill="#B8A2BE"/>
      <rect x="726.5" y="960" width="23" height="23" fill="#B8A2BE"/>
      <rect x="749.5" y="960" width="23" height="23" fill="#C9B8D0"/>
      <rect x="772.5" y="960" width="23" height="23" fill="#C9B8D0"/>
      <rect x="818.5" y="960" width="23" height="23" fill="#C9B8D0"/>
      <rect x="864.5" y="960" width="23" height="23" fill="#B8A2BE"/>
      <rect x="887.5" y="960" width="23" height="23" fill="#C9B8D0"/>
      <rect x="910.5" y="960" width="23" height="23" fill="#C9B8D0"/>
      <rect x="933.5" y="960" width="23" height="23" fill="#B8A2BE"/>
      <rect x="956.5" y="960" width="23" height="23" fill="#C9B8D0"/>
      <rect x="220.5" y="983" width="23" height="23" fill="#B8A2BE"/>
      <rect x="358.5" y="983" width="23" height="23" fill="#B8A2BE"/>
      <rect x="404.5" y="983" width="23" height="23" fill="#C9B8D0"/>
      <rect x="427.5" y="983" width="23" height="23" fill="#B8A2BE"/>
      <rect x="473.5" y="983" width="23" height="23" fill="#C9B8D0"/>
      <rect x="519.5" y="983" width="23" height="23" fill="#C9B8D0"/>
      <rect x="542.5" y="983" width="23" height="23" fill="#C9B8D0"/>
      <rect x="611.5" y="983" width="23" height="23" fill="#C9B8D0"/>
      <rect x="657.5" y="983" width="23" height="23" fill="#C9B8D0"/>
      <rect x="703.5" y="983" width="23" height="23" fill="#B8A2BE"/>
      <rect x="726.5" y="983" width="23" height="23" fill="#C9B8D0"/>
      <rect x="772.5" y="983" width="23" height="23" fill="#B8A2BE"/>
      <rect x="864.5" y="983" width="23" height="23" fill="#C9B8D0"/>
      <rect x="956.5" y="983" width="23" height="23" fill="#C9B8D0"/>
      <rect x="220.5" y="1006" width="23" height="23" fill="#C9B8D0"/>
      <rect x="266.5" y="1006" width="23" height="23" fill="#B8A2BE"/>
      <rect x="289.5" y="1006" width="23" height="23" fill="#C9B8D0"/>
      <rect x="312.5" y="1006" width="23" height="23" fill="#C9B8D0"/>
      <rect x="358.5" y="1006" width="23" height="23" fill="#C9B8D0"/>
      <rect x="404.5" y="1006" width="23" height="23" fill="#B8A2BE"/>
      <rect x="496.5" y="1006" width="23" height="23" fill="#C9B8D0"/>
      <rect x="519.5" y="1006" width="23" height="23" fill="#C9B8D0"/>
      <rect x="542.5" y="1006" width="23" height="23" fill="#B8A2BE"/>
      <rect x="565.5" y="1006" width="23" height="23" fill="#C9B8D0"/>
      <rect x="634.5" y="1006" width="23" height="23" fill="#C9B8D0"/>
      <rect x="726.5" y="1006" width="23" height="23" fill="#C9B8D0"/>
      <rect x="772.5" y="1006" width="23" height="23" fill="#C9B8D0"/>
      <rect x="795.5" y="1006" width="23" height="23" fill="#C9B8D0"/>
      <rect x="818.5" y="1006" width="23" height="23" fill="#B8A2BE"/>
      <rect x="841.5" y="1006" width="23" height="23" fill="#C9B8D0"/>
      <rect x="864.5" y="1006" width="23" height="23" fill="#9A3CFF"/>
      <rect x="933.5" y="1006" width="23" height="23" fill="#C9B8D0"/>
      <rect x="220.5" y="1029" width="23" height="23" fill="#C9B8D0"/>
      <rect x="266.5" y="1029" width="23" height="23" fill="#C9B8D0"/>
      <rect x="289.5" y="1029" width="23" height="23" fill="#C9B8D0"/>
      <rect x="312.5" y="1029" width="23" height="23" fill="#B8A2BE"/>
      <rect x="358.5" y="1029" width="23" height="23" fill="#C9B8D0"/>
      <rect x="427.5" y="1029" width="23" height="23" fill="#C9B8D0"/>
      <rect x="450.5" y="1029" width="23" height="23" fill="#B8A2BE"/>
      <rect x="473.5" y="1029" width="23" height="23" fill="#C9B8D0"/>
      <rect x="542.5" y="1029" width="23" height="23" fill="#C9B8D0"/>
      <rect x="588.5" y="1029" width="23" height="23" fill="#B8A2BE"/>
      <rect x="611.5" y="1029" width="23" height="23" fill="#C9B8D0"/>
      <rect x="680.5" y="1029" width="23" height="23" fill="#C9B8D0"/>
      <rect x="726.5" y="1029" width="23" height="23" fill="#B8A2BE"/>
      <rect x="772.5" y="1029" width="23" height="23" fill="#C9B8D0"/>
      <rect x="864.5" y="1029" width="23" height="23" fill="#B8A2BE"/>
      <rect x="910.5" y="1029" width="23" height="23" fill="#C9B8D0"/>
      <rect x="220.5" y="1052" width="23" height="23" fill="#B8A2BE"/>
      <rect x="266.5" y="1052" width="23" height="23" fill="#C9B8D0"/>
      <rect x="289.5" y="1052" width="23" height="23" fill="#B8A2BE"/>
      <rect x="312.5" y="1052" width="23" height="23" fill="#C9B8D0"/>
      <rect x="358.5" y="1052" width="23" height="23" fill="#B8A2BE"/>
      <rect x="404.5" y="1052" width="23" height="23" fill="#C9B8D0"/>
      <rect x="473.5" y="1052" width="23" height="23" fill="#C9B8D0"/>
      <rect x="542.5" y="1052" width="23" height="23" fill="#C9B8D0"/>
      <rect x="565.5" y="1052" width="23" height="23" fill="#B8A2BE"/>
      <rect x="657.5" y="1052" width="23" height="23" fill="#C9B8D0"/>
      <rect x="680.5" y="1052" width="23" height="23" fill="#C9B8D0"/>
      <rect x="703.5" y="1052" width="23" height="23" fill="#B8A2BE"/>
      <rect x="726.5" y="1052" width="23" height="23" fill="#C9B8D0"/>
      <rect x="749.5" y="1052" width="23" height="23" fill="#C9B8D0"/>
      <rect x="795.5" y="1052" width="23" height="23" fill="#C9B8D0"/>
      <rect x="841.5" y="1052" width="23" height="23" fill="#B8A2BE"/>
      <rect x="864.5" y="1052" width="23" height="23" fill="#C9B8D0"/>
      <rect x="887.5" y="1052" width="23" height="23" fill="#C9B8D0"/>
      <rect x="956.5" y="1052" width="23" height="23" fill="#C9B8D0"/>
      <rect x="220.5" y="1075" width="23" height="23" fill="#C9B8D0"/>
      <rect x="358.5" y="1075" width="23" height="23" fill="#C9B8D0"/>
      <rect x="450.5" y="1075" width="23" height="23" fill="#C9B8D0"/>
      <rect x="473.5" y="1075" width="23" height="23" fill="#B8A2BE"/>
      <rect x="496.5" y="1075" width="23" height="23" fill="#C9B8D0"/>
      <rect x="542.5" y="1075" width="23" height="23" fill="#B8A2BE"/>
      <rect x="565.5" y="1075" width="23" height="23" fill="#C9B8D0"/>
      <rect x="588.5" y="1075" width="23" height="23" fill="#C9B8D0"/>
      <rect x="611.5" y="1075" width="23" height="23" fill="#B8A2BE"/>
      <rect x="657.5" y="1075" width="23" height="23" fill="#C9B8D0"/>
      <rect x="703.5" y="1075" width="23" height="23" fill="#C9B8D0"/>
      <rect x="726.5" y="1075" width="23" height="23" fill="#C9B8D0"/>
      <rect x="772.5" y="1075" width="23" height="23" fill="#C9B8D0"/>
      <rect x="818.5" y="1075" width="23" height="23" fill="#B8A2BE"/>
      <rect x="841.5" y="1075" width="23" height="23" fill="#C9B8D0"/>
      <rect x="887.5" y="1075" width="23" height="23" fill="#B8A2BE"/>
      <rect x="933.5" y="1075" width="23" height="23" fill="#C9B8D0"/>
      <rect x="220.5" y="1098" width="23" height="23" fill="#C9B8D0"/>
      <rect x="243.5" y="1098" width="23" height="23" fill="#B8A2BE"/>
      <rect x="266.5" y="1098" width="23" height="23" fill="#C9B8D0"/>
      <rect x="289.5" y="1098" width="23" height="23" fill="#C9B8D0"/>
      <rect x="312.5" y="1098" width="23" height="23" fill="#B8A2BE"/>
      <rect x="335.5" y="1098" width="23" height="23" fill="#C9B8D0"/>
      <rect x="358.5" y="1098" width="23" height="23" fill="#C9B8D0"/>
      <rect x="473.5" y="1098" width="23" height="23" fill="#C9B8D0"/>
      <rect x="496.5" y="1098" width="23" height="23" fill="#C9B8D0"/>
      <rect x="519.5" y="1098" width="23" height="23" fill="#B8A2BE"/>
      <rect x="565.5" y="1098" width="23" height="23" fill="#C9B8D0"/>
      <rect x="588.5" y="1098" width="23" height="23" fill="#B8A2BE"/>
      <rect x="634.5" y="1098" width="23" height="23" fill="#C9B8D0"/>
      <rect x="680.5" y="1098" width="23" height="23" fill="#C9B8D0"/>
      <rect x="703.5" y="1098" width="23" height="23" fill="#C9B8D0"/>
      <rect x="749.5" y="1098" width="23" height="23" fill="#C9B8D0"/>
      <rect x="772.5" y="1098" width="23" height="23" fill="#C9B8D0"/>
      <rect x="841.5" y="1098" width="23" height="23" fill="#C9B8D0"/>
      <rect x="864.5" y="1098" width="23" height="23" fill="#B8A2BE"/>
      <rect x="910.5" y="1098" width="23" height="23" fill="#C9B8D0"/>
      <rect x="933.5" y="1098" width="23" height="23" fill="#B8A2BE"/>
      <rect x="956.5" y="1098" width="23" height="23" fill="#C9B8D0"/>
    </g>
  </g>

  <g id="metadata">
    <rect x="126" y="1254" width="442" height="116" fill="none" stroke="#6B6C72" stroke-width="2"/>
    <rect x="632" y="1254" width="442" height="116" fill="none" stroke="#6B6C72" stroke-width="2"/>
    <path d="M126 1240h948M126 1388h948" stroke="#9A3CFF" stroke-width="2" stroke-dasharray="12 12" opacity=".55"/>
    <text x="154" y="1296" fill="#A9AAB2" font-family="Consolas, monospace" font-size="20" letter-spacing="3">NODE</text>
    <text x="154" y="1338" fill="#EAEAF2" font-family="Consolas, monospace" font-size="28" font-weight="700">DEMO TARGET</text>
    <text x="660" y="1296" fill="#A9AAB2" font-family="Consolas, monospace" font-size="20" letter-spacing="3">CLEARANCE</text>
    <text x="660" y="1338" fill="#EAEAF2" font-family="Consolas, monospace" font-size="28" font-weight="700">OBSERVER</text>
    <rect x="126" y="1412" width="948" height="58" fill="none" stroke="#6B6C72" stroke-width="2"/>
    <text x="154" y="1450" fill="#A9AAB2" font-family="Consolas, monospace" font-size="18">STATIC DIRECT URL // ECC-H // GENERATED 2026-07-23T02:13:02Z</text>
  </g>

  <g id="footer">
    <text x="600" y="1514" fill="#EAEAF2" font-family="Consolas, monospace" font-size="20" text-anchor="middle" letter-spacing="3">PRINT ONCE. CHANGE THE DESTINATION FOREVER.</text>
  </g>
</svg>
