<?xml version="1.0" encoding="UTF-8"?>
<svg xmlns="http://www.w3.org/2000/svg" width="1280" height="1280" viewBox="0 0 1280 1280" role="img" aria-label="VeilCorp route glyph">
  <defs>
    <filter id="soft-red" x="-30%" y="-30%" width="160%" height="160%">
      <feGaussianBlur in="SourceAlpha" stdDeviation="2.2" result="blur"/>
      <feFlood flood-color="#c40035" flood-opacity="0.42"/>
      <feComposite in2="blur" operator="in"/>
      <feMerge>
        <feMergeNode/>
        <feMergeNode in="SourceGraphic"/>
      </feMerge>
    </filter>
    <filter id="mark-shadow" x="-20%" y="-20%" width="140%" height="140%">
      <feDropShadow dx="0" dy="5" stdDeviation="4" flood-color="#000" flood-opacity="0.55"/>
    </filter>
    <rect id="m" width="28" height="28" rx="8" fill="#171316"/>
    <rect id="a" width="20" height="20" rx="6" fill="#9b0024" opacity="0.55" filter="url(#soft-red)"/>
  </defs>

  <rect x="20" y="20" width="1240" height="1240" rx="54" fill="#090305" stroke="#9b0024" stroke-width="7" filter="url(#soft-red)"/>
  <rect x="51" y="51" width="1178" height="1178" rx="35" fill="none" stroke="#9b0024" stroke-width="1.5" opacity="0.28"/>

  <g opacity="0.96">
    <use href="#m" x="148" y="568" opacity="0.88"/>
    <use href="#m" x="148" y="638" opacity="0.68"/>
    <use href="#m" x="148" y="778" opacity="0.88"/>
    <use href="#m" x="183" y="428" opacity="0.88"/>
    <use href="#m" x="183" y="638" opacity="0.88"/>
    <use href="#m" x="183" y="673" opacity="0.88"/>
    <use href="#m" x="183" y="708" opacity="0.68"/>
    <use href="#m" x="183" y="743" opacity="0.88"/>
    <use href="#m" x="212" y="600" opacity="0.88"/>
    <use href="#m" x="212" y="635" opacity="0.88"/>
    <use href="#m" x="212" y="670" opacity="0.68"/>
    <use href="#m" x="212" y="705" opacity="0.88"/>
    <use href="#m" x="212" y="740" opacity="0.88"/>
    <use href="#m" x="218" y="463" opacity="0.68"/>
    <use href="#m" x="218" y="638" opacity="0.88"/>
    <use href="#m" x="218" y="708" opacity="0.88"/>
    <use href="#m" x="218" y="848" opacity="0.88"/>
    <use href="#m" x="253" y="463" opacity="0.88"/>
    <use href="#m" x="253" y="603" opacity="0.88"/>
    <use href="#m" x="253" y="638" opacity="0.68"/>
    <use href="#m" x="253" y="673" opacity="0.88"/>
    <use href="#m" x="253" y="813" opacity="0.88"/>
    <use href="#m" x="288" y="498" opacity="0.68"/>
    <use href="#m" x="288" y="533" opacity="0.88"/>
    <use href="#m" x="288" y="638" opacity="0.88"/>
    <use href="#m" x="288" y="743" opacity="0.88"/>
    <use href="#m" x="288" y="813" opacity="0.68"/>
    <use href="#m" x="323" y="428" opacity="0.88"/>
    <use href="#m" x="323" y="708" opacity="0.88"/>
    <use href="#m" x="323" y="743" opacity="0.88"/>
    <use href="#m" x="323" y="778" opacity="0.68"/>
    <use href="#m" x="358" y="428" opacity="0.68"/>
    <use href="#m" x="358" y="463" opacity="0.88"/>
    <use href="#m" x="358" y="603" opacity="0.88"/>
    <use href="#m" x="358" y="638" opacity="0.68"/>
    <use href="#m" x="393" y="428" opacity="0.88"/>
    <use href="#m" x="393" y="498" opacity="0.68"/>
    <use href="#m" x="393" y="568" opacity="0.88"/>
    <use href="#m" x="393" y="673" opacity="0.88"/>
    <use href="#m" x="393" y="743" opacity="0.88"/>
    <use href="#m" x="393" y="848" opacity="0.88"/>
    <use href="#m" x="428" y="148" opacity="0.68"/>
    <use href="#m" x="428" y="218" opacity="0.88"/>
    <use href="#m" x="428" y="253" opacity="0.68"/>
    <use href="#m" x="428" y="288" opacity="0.88"/>
    <use href="#m" x="428" y="358" opacity="0.68"/>
    <use href="#m" x="428" y="428" opacity="0.88"/>
    <use href="#m" x="428" y="498" opacity="0.88"/>
    <use href="#m" x="428" y="533" opacity="0.88"/>
    <use href="#m" x="428" y="778" opacity="0.68"/>
    <use href="#m" x="428" y="988" opacity="0.68"/>
    <use href="#m" x="428" y="1023" opacity="0.88"/>
    <use href="#m" x="428" y="1128" opacity="0.88"/>
    <use href="#m" x="463" y="183" opacity="0.88"/>
    <use href="#m" x="463" y="218" opacity="0.68"/>
    <use href="#m" x="463" y="323" opacity="0.68"/>
    <use href="#m" x="463" y="358" opacity="0.88"/>
    <use href="#m" x="463" y="463" opacity="0.88"/>
    <use href="#m" x="463" y="498" opacity="0.88"/>
    <use href="#m" x="463" y="533" opacity="0.68"/>
    <use href="#m" x="463" y="568" opacity="0.88"/>
    <use href="#m" x="463" y="638" opacity="0.68"/>
    <use href="#m" x="463" y="743" opacity="0.68"/>
    <use href="#m" x="463" y="778" opacity="0.88"/>
    <use href="#m" x="463" y="813" opacity="0.88"/>
    <use href="#m" x="463" y="848" opacity="0.68"/>
    <use href="#m" x="463" y="883" opacity="0.88"/>
    <use href="#m" x="463" y="988" opacity="0.88"/>
    <use href="#m" x="463" y="1023" opacity="0.88"/>
    <use href="#m" x="490" y="463" opacity="0.88"/>
    <use href="#m" x="492" y="980" opacity="0.88"/>
    <use href="#m" x="498" y="218" opacity="0.88"/>
    <use href="#m" x="498" y="288" opacity="0.68"/>
    <use href="#m" x="498" y="323" opacity="0.88"/>
    <use href="#m" x="498" y="428" opacity="0.88"/>
    <use href="#m" x="498" y="883" opacity="0.88"/>
    <use href="#m" x="498" y="1023" opacity="0.68"/>
    <use href="#m" x="498" y="1058" opacity="0.88"/>
    <use href="#m" x="498" y="1128" opacity="0.68"/>
    <use href="#m" x="525" y="463" opacity="0.88"/>
    <use href="#m" x="527" y="980" opacity="0.88"/>
    <use href="#m" x="533" y="148" opacity="0.68"/>
    <use href="#m" x="533" y="253" opacity="0.68"/>
    <use href="#m" x="533" y="358" opacity="0.68"/>
    <use href="#m" x="533" y="393" opacity="0.88"/>
    <use href="#m" x="533" y="463" opacity="0.68"/>
    <use href="#m" x="533" y="883" opacity="0.68"/>
    <use href="#m" x="533" y="918" opacity="0.88"/>
    <use href="#m" x="533" y="953" opacity="0.88"/>
    <use href="#m" x="533" y="988" opacity="0.68"/>
    <use href="#m" x="560" y="463" opacity="0.68"/>
    <use href="#m" x="562" y="980" opacity="0.68"/>
    <use href="#m" x="568" y="358" opacity="0.88"/>
    <use href="#m" x="568" y="918" opacity="0.88"/>
    <use href="#m" x="568" y="988" opacity="0.88"/>
    <use href="#m" x="568" y="1023" opacity="0.88"/>
    <use href="#m" x="568" y="1093" opacity="0.88"/>
    <use href="#m" x="595" y="463" opacity="0.88"/>
    <use href="#m" x="597" y="980" opacity="0.88"/>
    <use href="#m" x="603" y="183" opacity="0.68"/>
    <use href="#m" x="603" y="288" opacity="0.68"/>
    <use href="#m" x="603" y="883" opacity="0.88"/>
    <use href="#m" x="603" y="953" opacity="0.88"/>
    <use href="#m" x="603" y="988" opacity="0.88"/>
    <use href="#m" x="603" y="1023" opacity="0.68"/>
    <use href="#m" x="603" y="1058" opacity="0.88"/>
    <use href="#m" x="630" y="463" opacity="0.88"/>
    <use href="#m" x="638" y="288" opacity="0.88"/>
    <use href="#m" x="638" y="323" opacity="0.88"/>
    <use href="#m" x="638" y="358" opacity="0.68"/>
    <use href="#m" x="638" y="813" opacity="0.88"/>
    <use href="#m" x="638" y="918" opacity="0.88"/>
    <use href="#m" x="638" y="988" opacity="0.68"/>
    <use href="#m" x="638" y="1023" opacity="0.88"/>
    <use href="#m" x="665" y="463" opacity="0.68"/>
    <use href="#m" x="665" y="835" opacity="0.68"/>
    <use href="#m" x="665" y="870" opacity="0.88"/>
    <use href="#m" x="665" y="905" opacity="0.88"/>
    <use href="#m" x="665" y="940" opacity="0.68"/>
    <use href="#m" x="673" y="183" opacity="0.88"/>
    <use href="#m" x="673" y="218" opacity="0.68"/>
    <use href="#m" x="673" y="288" opacity="0.88"/>
    <use href="#m" x="673" y="323" opacity="0.68"/>
    <use href="#m" x="673" y="358" opacity="0.88"/>
    <use href="#m" x="673" y="848" opacity="0.68"/>
    <use href="#m" x="673" y="883" opacity="0.88"/>
    <use href="#m" x="673" y="988" opacity="0.88"/>
    <use href="#m" x="708" y="218" opacity="0.88"/>
    <use href="#m" x="708" y="288" opacity="0.68"/>
    <use href="#m" x="708" y="323" opacity="0.88"/>
    <use href="#m" x="708" y="393" opacity="0.68"/>
    <use href="#m" x="708" y="463" opacity="0.88"/>
    <use href="#m" x="708" y="813" opacity="0.68"/>
    <use href="#m" x="708" y="848" opacity="0.88"/>
    <use href="#m" x="708" y="953" opacity="0.88"/>
    <use href="#m" x="708" y="1023" opacity="0.68"/>
    <use href="#m" x="708" y="1058" opacity="0.88"/>
    <use href="#m" x="743" y="183" opacity="0.88"/>
    <use href="#m" x="743" y="218" opacity="0.88"/>
    <use href="#m" x="743" y="323" opacity="0.88"/>
    <use href="#m" x="743" y="428" opacity="0.88"/>
    <use href="#m" x="743" y="848" opacity="0.88"/>
    <use href="#m" x="743" y="883" opacity="0.68"/>
    <use href="#m" x="743" y="1128" opacity="0.88"/>
    <use href="#m" x="778" y="148" opacity="0.88"/>
    <use href="#m" x="778" y="183" opacity="0.88"/>
    <use href="#m" x="778" y="253" opacity="0.88"/>
    <use href="#m" x="778" y="358" opacity="0.88"/>
    <use href="#m" x="778" y="1093" opacity="0.88"/>
    <use href="#m" x="813" y="218" opacity="0.88"/>
    <use href="#m" x="813" y="288" opacity="0.68"/>
    <use href="#m" x="813" y="323" opacity="0.88"/>
    <use href="#m" x="813" y="428" opacity="0.88"/>
    <use href="#m" x="813" y="498" opacity="0.68"/>
    <use href="#m" x="813" y="533" opacity="0.88"/>
    <use href="#m" x="813" y="778" opacity="0.88"/>
    <use href="#m" x="813" y="813" opacity="0.68"/>
    <use href="#m" x="813" y="848" opacity="0.88"/>
    <use href="#m" x="813" y="883" opacity="0.88"/>
    <use href="#m" x="813" y="953" opacity="0.88"/>
    <use href="#m" x="813" y="988" opacity="0.88"/>
    <use href="#m" x="813" y="1058" opacity="0.88"/>
    <use href="#m" x="813" y="1093" opacity="0.88"/>
    <use href="#m" x="840" y="665" opacity="0.88"/>
    <use href="#m" x="848" y="148" opacity="0.68"/>
    <use href="#m" x="848" y="218" opacity="0.88"/>
    <use href="#m" x="848" y="288" opacity="0.88"/>
    <use href="#m" x="848" y="323" opacity="0.88"/>
    <use href="#m" x="848" y="393" opacity="0.88"/>
    <use href="#m" x="848" y="428" opacity="0.88"/>
    <use href="#m" x="848" y="568" opacity="0.68"/>
    <use href="#m" x="848" y="638" opacity="0.88"/>
    <use href="#m" x="848" y="673" opacity="0.68"/>
    <use href="#m" x="848" y="778" opacity="0.68"/>
    <use href="#m" x="848" y="813" opacity="0.88"/>
    <use href="#m" x="848" y="883" opacity="0.68"/>
    <use href="#m" x="848" y="953" opacity="0.88"/>
    <use href="#m" x="875" y="665" opacity="0.88"/>
    <use href="#m" x="883" y="428" opacity="0.68"/>
    <use href="#m" x="883" y="533" opacity="0.68"/>
    <use href="#m" x="883" y="638" opacity="0.68"/>
    <use href="#m" x="883" y="673" opacity="0.88"/>
    <use href="#m" x="883" y="708" opacity="0.88"/>
    <use href="#m" x="883" y="743" opacity="0.68"/>
    <use href="#m" x="883" y="778" opacity="0.88"/>
    <use href="#m" x="883" y="813" opacity="0.88"/>
    <use href="#m" x="883" y="883" opacity="0.88"/>
    <use href="#m" x="883" y="1058" opacity="0.68"/>
    <use href="#m" x="918" y="463" opacity="0.88"/>
    <use href="#m" x="918" y="498" opacity="0.68"/>
    <use href="#m" x="918" y="568" opacity="0.88"/>
    <use href="#m" x="918" y="743" opacity="0.88"/>
    <use href="#m" x="918" y="813" opacity="0.68"/>
    <use href="#m" x="918" y="848" opacity="0.88"/>
    <use href="#m" x="918" y="883" opacity="0.88"/>
    <use href="#m" x="918" y="1093" opacity="0.88"/>
    <use href="#m" x="918" y="1128" opacity="0.68"/>
    <use href="#m" x="940" y="840" opacity="0.88"/>
    <use href="#m" x="945" y="490" opacity="0.88"/>
    <use href="#m" x="953" y="463" opacity="0.68"/>
    <use href="#m" x="953" y="638" opacity="0.88"/>
    <use href="#m" x="953" y="708" opacity="0.88"/>
    <use href="#m" x="953" y="743" opacity="0.88"/>
    <use href="#m" x="953" y="953" opacity="0.88"/>
    <use href="#m" x="953" y="988" opacity="0.68"/>
    <use href="#m" x="975" y="840" opacity="0.68"/>
    <use href="#m" x="980" y="490" opacity="0.68"/>
    <use href="#m" x="988" y="498" opacity="0.88"/>
    <use href="#m" x="988" y="568" opacity="0.88"/>
    <use href="#m" x="988" y="673" opacity="0.88"/>
    <use href="#m" x="988" y="743" opacity="0.68"/>
    <use href="#m" x="988" y="778" opacity="0.88"/>
    <use href="#m" x="988" y="848" opacity="0.68"/>
    <use href="#m" x="988" y="883" opacity="0.88"/>
    <use href="#m" x="988" y="953" opacity="0.68"/>
    <use href="#m" x="988" y="1093" opacity="0.88"/>
    <use href="#m" x="1010" y="840" opacity="0.88"/>
    <use href="#m" x="1015" y="490" opacity="0.88"/>
    <use href="#m" x="1023" y="533" opacity="0.88"/>
    <use href="#m" x="1023" y="603" opacity="0.68"/>
    <use href="#m" x="1023" y="673" opacity="0.88"/>
    <use href="#m" x="1023" y="708" opacity="0.68"/>
    <use href="#m" x="1023" y="743" opacity="0.88"/>
    <use href="#m" x="1023" y="813" opacity="0.68"/>
    <use href="#m" x="1023" y="848" opacity="0.88"/>
    <use href="#m" x="1023" y="953" opacity="0.88"/>
    <use href="#m" x="1023" y="1058" opacity="0.88"/>
    <use href="#m" x="1045" y="840" opacity="0.88"/>
    <use href="#m" x="1050" y="490" opacity="0.88"/>
    <use href="#m" x="1058" y="428" opacity="0.88"/>
    <use href="#m" x="1058" y="603" opacity="0.88"/>
    <use href="#m" x="1058" y="708" opacity="0.88"/>
    <use href="#m" x="1058" y="778" opacity="0.68"/>
    <use href="#m" x="1058" y="848" opacity="0.88"/>
    <use href="#m" x="1058" y="918" opacity="0.88"/>
    <use href="#m" x="1058" y="953" opacity="0.88"/>
    <use href="#m" x="1080" y="840" opacity="0.68"/>
    <use href="#m" x="1085" y="490" opacity="0.68"/>
    <use href="#m" x="1093" y="673" opacity="0.88"/>
    <use href="#m" x="1093" y="708" opacity="0.88"/>
    <use href="#m" x="1093" y="743" opacity="0.68"/>
    <use href="#m" x="1093" y="813" opacity="0.88"/>
    <use href="#m" x="1093" y="988" opacity="0.88"/>
    <use href="#m" x="1115" y="840" opacity="0.88"/>
    <use href="#m" x="1128" y="428" opacity="0.88"/>
    <use href="#m" x="1128" y="463" opacity="0.88"/>
    <use href="#m" x="1128" y="533" opacity="0.88"/>
    <use href="#m" x="1128" y="603" opacity="0.68"/>
    <use href="#m" x="1128" y="708" opacity="0.68"/>
    <use href="#m" x="1128" y="813" opacity="0.68"/>
    <use href="#m" x="1128" y="918" opacity="0.68"/>
    <use href="#m" x="1128" y="953" opacity="0.88"/>
    <use href="#m" x="1150" y="840" opacity="0.88"/>
    <use href="#a" x="148" y="608"/>
    <use href="#a" x="323" y="638"/>
    <use href="#a" x="708" y="262"/>
    <use href="#a" x="708" y="365"/>
    <use href="#a" x="813" y="913"/>
    <use href="#a" x="918" y="913"/>
    <use href="#a" x="1023" y="638"/>
    <use href="#a" x="575" y="463"/>
    <use href="#a" x="846" y="842"/>
    <use href="#a" x="223" y="918"/>
  </g>

  <g id="finder-top-left" filter="url(#soft-red)">
    <rect x="130" y="130" width="260" height="260" rx="14" fill="none" stroke="#9b0024" stroke-width="8"/>
    <rect x="146" y="146" width="28" height="28" rx="8" fill="#171316"/>
    <rect x="182" y="146" width="28" height="28" rx="8" fill="#171316"/>
    <rect x="218" y="146" width="28" height="28" rx="8" fill="#171316"/>
    <rect x="254" y="146" width="28" height="28" rx="8" fill="#171316"/>
    <rect x="290" y="146" width="28" height="28" rx="8" fill="#171316"/>
    <rect x="326" y="146" width="28" height="28" rx="8" fill="#171316"/>
    <rect x="354" y="146" width="28" height="28" rx="8" fill="#171316"/>
    <rect x="146" y="182" width="28" height="28" rx="8" fill="#171316"/>
    <rect x="354" y="182" width="28" height="28" rx="8" fill="#171316"/>
    <rect x="146" y="218" width="28" height="28" rx="8" fill="#171316"/>
    <rect x="218" y="218" width="28" height="28" rx="8" fill="#171316"/>
    <rect x="254" y="218" width="28" height="28" rx="8" fill="#171316"/>
    <rect x="290" y="218" width="28" height="28" rx="8" fill="#171316"/>
    <rect x="354" y="218" width="28" height="28" rx="8" fill="#171316"/>
    <rect x="146" y="254" width="28" height="28" rx="8" fill="#171316"/>
    <rect x="218" y="254" width="28" height="28" rx="8" fill="#171316"/>
    <rect x="254" y="254" width="28" height="28" rx="8" fill="#171316"/>
    <rect x="290" y="254" width="28" height="28" rx="8" fill="#171316"/>
    <rect x="354" y="254" width="28" height="28" rx="8" fill="#171316"/>
    <rect x="146" y="290" width="28" height="28" rx="8" fill="#171316"/>
    <rect x="218" y="290" width="28" height="28" rx="8" fill="#171316"/>
    <rect x="254" y="290" width="28" height="28" rx="8" fill="#171316"/>
    <rect x="290" y="290" width="28" height="28" rx="8" fill="#171316"/>
    <rect x="354" y="290" width="28" height="28" rx="8" fill="#171316"/>
    <rect x="146" y="326" width="28" height="28" rx="8" fill="#171316"/>
    <rect x="354" y="326" width="28" height="28" rx="8" fill="#171316"/>
    <rect x="146" y="354" width="28" height="28" rx="8" fill="#171316"/>
    <rect x="182" y="354" width="28" height="28" rx="8" fill="#171316"/>
    <rect x="218" y="354" width="28" height="28" rx="8" fill="#171316"/>
    <rect x="254" y="354" width="28" height="28" rx="8" fill="#171316"/>
    <rect x="290" y="354" width="28" height="28" rx="8" fill="#171316"/>
    <rect x="326" y="354" width="28" height="28" rx="8" fill="#171316"/>
    <rect x="354" y="354" width="28" height="28" rx="8" fill="#171316"/>
  </g>
  <use href="#finder-top-left" x="760" y="0"/>
  <use href="#finder-top-left" x="0" y="760"/>

  <g id="seal" filter="url(#soft-red)">
    <circle cx="640" cy="640" r="134" fill="#050507" stroke="#9b0024" stroke-width="7"/>
  </g>

  <g id="veilcorp-v" filter="url(#mark-shadow)" fill="#e9e5dc" transform="translate(640 640) scale(0.78) translate(-640 -640)">
    <path d="M567 582h50l31 66 31-66h50l-81 153z"/>
    <path d="M617 582h20l-15 92-54-92z" opacity="0.92"/>
    <path d="M659 582h20l-59 98 4 17z" opacity="0.75"/>
    <path d="M567 582h-1l-6-18h56l11 18z"/>
    <path d="M729 582h-1l7-18h-56l-11 18z"/>
    <path d="M554 599h-38l-6-14h54z"/>
    <path d="M545 624h-47l-7-14h59z"/>
    <path d="M535 650h-34l-8-14h47z"/>
    <path d="M726 599h38l6-14h-54z"/>
    <path d="M735 624h47l7-14h-59z"/>
    <path d="M745 650h34l8-14h-47z"/>
  </g>
</svg>
