<?xml version="1.0" encoding="UTF-8"?>
<!DOCTYPE svg
  PUBLIC '-//W3C//DTD SVG 1.1//EN'
  'http://www.w3.org/Graphics/SVG/1.1/DTD/svg11.dtd'>
<svg version="1.1" xmlns="http://www.w3.org/2000/svg" width="148.960mm" height="62.617mm">
    <!--Autogenerated with python-barcode 0.16.1-->
    <g id="barcode_group">
        <rect width="100%" height="100%" style="fill:white"/>
        <rect x="8.000mm" y="1.000mm" width="0.960mm" height="54.000mm" style="fill:black;"/>
        <rect x="9.440mm" y="1.000mm" width="0.480mm" height="54.000mm" style="fill:black;"/>
        <rect x="10.880mm" y="1.000mm" width="0.480mm" height="54.000mm" style="fill:black;"/>
        <rect x="13.280mm" y="1.000mm" width="0.480mm" height="54.000mm" style="fill:black;"/>
        <rect x="14.720mm" y="1.000mm" width="0.960mm" height="54.000mm" style="fill:black;"/>
        <rect x="17.600mm" y="1.000mm" width="0.480mm" height="54.000mm" style="fill:black;"/>
        <rect x="18.560mm" y="1.000mm" width="0.480mm" height="54.000mm" style="fill:black;"/>
        <rect x="20.000mm" y="1.000mm" width="1.920mm" height="54.000mm" style="fill:black;"/>
        <rect x="22.400mm" y="1.000mm" width="0.480mm" height="54.000mm" style="fill:black;"/>
        <rect x="23.840mm" y="1.000mm" width="0.480mm" height="54.000mm" style="fill:black;"/>
        <rect x="25.280mm" y="1.000mm" width="1.920mm" height="54.000mm" style="fill:black;"/>
        <rect x="27.680mm" y="1.000mm" width="0.480mm" height="54.000mm" style="fill:black;"/>
        <rect x="29.120mm" y="1.000mm" width="0.480mm" height="54.000mm" style="fill:black;"/>
        <rect x="30.080mm" y="1.000mm" width="0.480mm" height="54.000mm" style="fill:black;"/>
        <rect x="31.520mm" y="1.000mm" width="1.920mm" height="54.000mm" style="fill:black;"/>
        <rect x="34.400mm" y="1.000mm" width="0.480mm" height="54.000mm" style="fill:black;"/>
        <rect x="35.360mm" y="1.000mm" width="1.920mm" height="54.000mm" style="fill:black;"/>
        <rect x="38.240mm" y="1.000mm" width="0.480mm" height="54.000mm" style="fill:black;"/>
        <rect x="39.680mm" y="1.000mm" width="1.440mm" height="54.000mm" style="fill:black;"/>
        <rect x="42.080mm" y="1.000mm" width="0.480mm" height="54.000mm" style="fill:black;"/>
        <rect x="43.520mm" y="1.000mm" width="0.960mm" height="54.000mm" style="fill:black;"/>
        <rect x="44.960mm" y="1.000mm" width="0.480mm" height="54.000mm" style="fill:black;"/>
        <rect x="45.920mm" y="1.000mm" width="1.440mm" height="54.000mm" style="fill:black;"/>
        <rect x="48.320mm" y="1.000mm" width="0.960mm" height="54.000mm" style="fill:black;"/>
        <rect x="50.240mm" y="1.000mm" width="0.480mm" height="54.000mm" style="fill:black;"/>
        <rect x="51.200mm" y="1.000mm" width="1.440mm" height="54.000mm" style="fill:black;"/>
        <rect x="53.600mm" y="1.000mm" width="0.960mm" height="54.000mm" style="fill:black;"/>
        <rect x="55.520mm" y="1.000mm" width="1.920mm" height="54.000mm" style="fill:black;"/>
        <rect x="57.920mm" y="1.000mm" width="0.480mm" height="54.000mm" style="fill:black;"/>
        <rect x="59.360mm" y="1.000mm" width="0.480mm" height="54.000mm" style="fill:black;"/>
        <rect x="60.800mm" y="1.000mm" width="0.480mm" height="54.000mm" style="fill:black;"/>
        <rect x="61.760mm" y="1.000mm" width="0.960mm" height="54.000mm" style="fill:black;"/>
        <rect x="63.680mm" y="1.000mm" width="0.480mm" height="54.000mm" style="fill:black;"/>
        <rect x="66.080mm" y="1.000mm" width="0.480mm" height="54.000mm" style="fill:black;"/>
        <rect x="68.480mm" y="1.000mm" width="0.960mm" height="54.000mm" style="fill:black;"/>
        <rect x="69.920mm" y="1.000mm" width="0.480mm" height="54.000mm" style="fill:black;"/>
        <rect x="71.360mm" y="1.000mm" width="0.960mm" height="54.000mm" style="fill:black;"/>
        <rect x="73.280mm" y="1.000mm" width="0.480mm" height="54.000mm" style="fill:black;"/>
        <rect x="74.240mm" y="1.000mm" width="0.480mm" height="54.000mm" style="fill:black;"/>
        <rect x="76.640mm" y="1.000mm" width="0.480mm" height="54.000mm" style="fill:black;"/>
        <rect x="79.040mm" y="1.000mm" width="0.480mm" height="54.000mm" style="fill:black;"/>
        <rect x="80.480mm" y="1.000mm" width="0.960mm" height="54.000mm" style="fill:black;"/>
        <rect x="81.920mm" y="1.000mm" width="0.480mm" height="54.000mm" style="fill:black;"/>
        <rect x="83.360mm" y="1.000mm" width="0.480mm" height="54.000mm" style="fill:black;"/>
        <rect x="84.320mm" y="1.000mm" width="0.960mm" height="54.000mm" style="fill:black;"/>
        <rect x="87.200mm" y="1.000mm" width="0.480mm" height="54.000mm" style="fill:black;"/>
        <rect x="88.160mm" y="1.000mm" width="0.960mm" height="54.000mm" style="fill:black;"/>
        <rect x="90.080mm" y="1.000mm" width="0.480mm" height="54.000mm" style="fill:black;"/>
        <rect x="92.480mm" y="1.000mm" width="1.920mm" height="54.000mm" style="fill:black;"/>
        <rect x="94.880mm" y="1.000mm" width="1.440mm" height="54.000mm" style="fill:black;"/>
        <rect x="96.800mm" y="1.000mm" width="0.480mm" height="54.000mm" style="fill:black;"/>
        <rect x="97.760mm" y="1.000mm" width="0.480mm" height="54.000mm" style="fill:black;"/>
        <rect x="99.680mm" y="1.000mm" width="1.920mm" height="54.000mm" style="fill:black;"/>
        <rect x="102.080mm" y="1.000mm" width="0.480mm" height="54.000mm" style="fill:black;"/>
        <rect x="103.040mm" y="1.000mm" width="0.960mm" height="54.000mm" style="fill:black;"/>
        <rect x="105.920mm" y="1.000mm" width="0.480mm" height="54.000mm" style="fill:black;"/>
        <rect x="106.880mm" y="1.000mm" width="0.480mm" height="54.000mm" style="fill:black;"/>
        <rect x="108.320mm" y="1.000mm" width="0.480mm" height="54.000mm" style="fill:black;"/>
        <rect x="109.760mm" y="1.000mm" width="0.960mm" height="54.000mm" style="fill:black;"/>
        <rect x="111.680mm" y="1.000mm" width="1.440mm" height="54.000mm" style="fill:black;"/>
        <rect x="113.600mm" y="1.000mm" width="0.480mm" height="54.000mm" style="fill:black;"/>
        <rect x="115.040mm" y="1.000mm" width="0.480mm" height="54.000mm" style="fill:black;"/>
        <rect x="116.000mm" y="1.000mm" width="0.960mm" height="54.000mm" style="fill:black;"/>
        <rect x="118.880mm" y="1.000mm" width="0.480mm" height="54.000mm" style="fill:black;"/>
        <rect x="119.840mm" y="1.000mm" width="0.480mm" height="54.000mm" style="fill:black;"/>
        <rect x="121.280mm" y="1.000mm" width="1.920mm" height="54.000mm" style="fill:black;"/>
        <rect x="124.160mm" y="1.000mm" width="0.480mm" height="54.000mm" style="fill:black;"/>
        <rect x="125.120mm" y="1.000mm" width="0.480mm" height="54.000mm" style="fill:black;"/>
        <rect x="126.560mm" y="1.000mm" width="1.920mm" height="54.000mm" style="fill:black;"/>
        <rect x="129.440mm" y="1.000mm" width="0.960mm" height="54.000mm" style="fill:black;"/>
        <rect x="131.360mm" y="1.000mm" width="0.480mm" height="54.000mm" style="fill:black;"/>
        <rect x="132.320mm" y="1.000mm" width="1.440mm" height="54.000mm" style="fill:black;"/>
        <rect x="134.720mm" y="1.000mm" width="0.960mm" height="54.000mm" style="fill:black;"/>
        <rect x="137.120mm" y="1.000mm" width="1.440mm" height="54.000mm" style="fill:black;"/>
        <rect x="139.040mm" y="1.000mm" width="0.480mm" height="54.000mm" style="fill:black;"/>
        <rect x="140.000mm" y="1.000mm" width="0.960mm" height="54.000mm" style="fill:black;"/>
        <text x="74.480mm" y="59.500mm" style="fill:black;font-size:12pt;text-anchor:middle;">https://veildaemon.app</text>
    </g>
</svg>
