<?xml version="1.0" encoding="UTF-8"?>
<svg xmlns="http://www.w3.org/2000/svg" width="1200" height="1600" viewBox="0 0 1200 1600" role="img" aria-labelledby="title desc">
  <title id="title">VEILCORP ARCHIVES QR</title>
  <desc id="desc">Static QR code for https://veildaemon.app. Error correction H. Scan test required before publishing.</desc>
  <rect width="1200" height="1600" fill="#0A0A0D"/>
  <rect x="70" y="74" width="1060" height="1452" fill="none" stroke="#6B6C72" stroke-width="4"/>
  <rect x="92" y="96" width="1016" height="1408" fill="none" stroke="#6B6C72" stroke-width="1" opacity=".52"/>
  <rect x="114" y="118" width="972" height="1364" fill="none" stroke="#9A3CFF" stroke-width="1" opacity=".42"/>
  <path d="M88 92h118v14H102v104H88V92Z" fill="#6B6C72"/>
  <path d="M1112 92h-118v14h104v104h14V92Z" fill="#6B6C72"/>
  <path d="M88 1508h118v-14H102v-104H88v118Z" fill="#6B6C72"/>
  <path d="M1112 1508h-118v-14h104v-104h14v118Z" fill="#6B6C72"/>
  <path d="M126 138h948M126 1462h948" stroke="#6B6C72" stroke-width="2" stroke-dasharray="18 16" opacity=".75"/>
  <path d="M138 180v1240M1062 180v1240" stroke="#6B6C72" stroke-width="2" stroke-dasharray="18 16" opacity=".5"/>

  <g id="header">
    <text x="600" y="178" fill="#EAEAF2" font-family="Inter, Consolas, monospace" font-size="54" font-weight="700" text-anchor="middle" letter-spacing="3">VEILCORP ARCHIVES</text>
    <text x="600" y="226" fill="#A9AAB2" font-family="Consolas, monospace" font-size="24" text-anchor="middle" letter-spacing="4">ACCESS NODE // VERIFIED</text>
    <path d="M282 260h636" stroke="#9A3CFF" stroke-width="3" stroke-dasharray="32 14"/>
  </g>

  <g id="qr-field">
    <rect x="105" y="256" width="990" height="990" fill="#0F0F15" stroke="#6B6C72" stroke-width="4"/>
    <rect x="117" y="268" width="966" height="966" fill="none" stroke="#FF3B3B" stroke-width="2" opacity=".48"/>
    <rect x="119" y="270" width="962" height="962" fill="#0A0A0D"/>
    <g id="qr-modules" shape-rendering="crispEdges">
      <rect x="223" y="374" width="26" height="26" fill="#B8A2BE"/>
      <rect x="249" y="374" width="26" height="26" fill="#C9B8D0"/>
      <rect x="275" y="374" width="26" height="26" fill="#C9B8D0"/>
      <rect x="301" y="374" width="26" height="26" fill="#B8A2BE"/>
      <rect x="327" y="374" width="26" height="26" fill="#C9B8D0"/>
      <rect x="353" y="374" width="26" height="26" fill="#C9B8D0"/>
      <rect x="379" y="374" width="26" height="26" fill="#B8A2BE"/>
      <rect x="431" y="374" width="26" height="26" fill="#C9B8D0"/>
      <rect x="483" y="374" width="26" height="26" fill="#C9B8D0"/>
      <rect x="509" y="374" width="26" height="26" fill="#9A3CFF"/>
      <rect x="639" y="374" width="26" height="26" fill="#C9B8D0"/>
      <rect x="665" y="374" width="26" height="26" fill="#C9B8D0"/>
      <rect x="691" y="374" width="26" height="26" fill="#B8A2BE"/>
      <rect x="795" y="374" width="26" height="26" fill="#C9B8D0"/>
      <rect x="821" y="374" width="26" height="26" fill="#C9B8D0"/>
      <rect x="847" y="374" width="26" height="26" fill="#B8A2BE"/>
      <rect x="873" y="374" width="26" height="26" fill="#C9B8D0"/>
      <rect x="899" y="374" width="26" height="26" fill="#C9B8D0"/>
      <rect x="925" y="374" width="26" height="26" fill="#B8A2BE"/>
      <rect x="951" y="374" width="26" height="26" fill="#C9B8D0"/>
      <rect x="223" y="400" width="26" height="26" fill="#C9B8D0"/>
      <rect x="379" y="400" width="26" height="26" fill="#C9B8D0"/>
      <rect x="457" y="400" width="26" height="26" fill="#C9B8D0"/>
      <rect x="483" y="400" width="26" height="26" fill="#C9B8D0"/>
      <rect x="535" y="400" width="26" height="26" fill="#C9B8D0"/>
      <rect x="561" y="400" width="26" height="26" fill="#C9B8D0"/>
      <rect x="587" y="400" width="26" height="26" fill="#B8A2BE"/>
      <rect x="613" y="400" width="26" height="26" fill="#C9B8D0"/>
      <rect x="639" y="400" width="26" height="26" fill="#C9B8D0"/>
      <rect x="665" y="400" width="26" height="26" fill="#B8A2BE"/>
      <rect x="795" y="400" width="26" height="26" fill="#C9B8D0"/>
      <rect x="951" y="400" width="26" height="26" fill="#C9B8D0"/>
      <rect x="223" y="426" width="26" height="26" fill="#C9B8D0"/>
      <rect x="275" y="426" width="26" height="26" fill="#C9B8D0"/>
      <rect x="301" y="426" width="26" height="26" fill="#C9B8D0"/>
      <rect x="327" y="426" width="26" height="26" fill="#B8A2BE"/>
      <rect x="379" y="426" width="26" height="26" fill="#C9B8D0"/>
      <rect x="457" y="426" width="26" height="26" fill="#C9B8D0"/>
      <rect x="483" y="426" width="26" height="26" fill="#B8A2BE"/>
      <rect x="535" y="426" width="26" height="26" fill="#C9B8D0"/>
      <rect x="587" y="426" width="26" height="26" fill="#C9B8D0"/>
      <rect x="613" y="426" width="26" height="26" fill="#C9B8D0"/>
      <rect x="717" y="426" width="26" height="26" fill="#B8A2BE"/>
      <rect x="795" y="426" width="26" height="26" fill="#B8A2BE"/>
      <rect x="847" y="426" width="26" height="26" fill="#C9B8D0"/>
      <rect x="873" y="426" width="26" height="26" fill="#B8A2BE"/>
      <rect x="899" y="426" width="26" height="26" fill="#C9B8D0"/>
      <rect x="951" y="426" width="26" height="26" fill="#B8A2BE"/>
      <rect x="223" y="452" width="26" height="26" fill="#B8A2BE"/>
      <rect x="275" y="452" width="26" height="26" fill="#C9B8D0"/>
      <rect x="301" y="452" width="26" height="26" fill="#B8A2BE"/>
      <rect x="327" y="452" width="26" height="26" fill="#C9B8D0"/>
      <rect x="379" y="452" width="26" height="26" fill="#B8A2BE"/>
      <rect x="431" y="452" width="26" height="26" fill="#C9B8D0"/>
      <rect x="561" y="452" width="26" height="26" fill="#C9B8D0"/>
      <rect x="613" y="452" width="26" height="26" fill="#B8A2BE"/>
      <rect x="639" y="452" width="26" height="26" fill="#C9B8D0"/>
      <rect x="691" y="452" width="26" height="26" fill="#B8A2BE"/>
      <rect x="795" y="452" width="26" height="26" fill="#C9B8D0"/>
      <rect x="847" y="452" width="26" height="26" fill="#B8A2BE"/>
      <rect x="873" y="452" width="26" height="26" fill="#C9B8D0"/>
      <rect x="899" y="452" width="26" height="26" fill="#C9B8D0"/>
      <rect x="951" y="452" width="26" height="26" fill="#C9B8D0"/>
      <rect x="223" y="478" width="26" height="26" fill="#C9B8D0"/>
      <rect x="275" y="478" width="26" height="26" fill="#B8A2BE"/>
      <rect x="301" y="478" width="26" height="26" fill="#C9B8D0"/>
      <rect x="327" y="478" width="26" height="26" fill="#C9B8D0"/>
      <rect x="379" y="478" width="26" height="26" fill="#C9B8D0"/>
      <rect x="457" y="478" width="26" height="26" fill="#C9B8D0"/>
      <rect x="509" y="478" width="26" height="26" fill="#B8A2BE"/>
      <rect x="535" y="478" width="26" height="26" fill="#C9B8D0"/>
      <rect x="639" y="478" width="26" height="26" fill="#C9B8D0"/>
      <rect x="691" y="478" width="26" height="26" fill="#C9B8D0"/>
      <rect x="717" y="478" width="26" height="26" fill="#C9B8D0"/>
      <rect x="795" y="478" width="26" height="26" fill="#C9B8D0"/>
      <rect x="847" y="478" width="26" height="26" fill="#C9B8D0"/>
      <rect x="873" y="478" width="26" height="26" fill="#C9B8D0"/>
      <rect x="899" y="478" width="26" height="26" fill="#B8A2BE"/>
      <rect x="951" y="478" width="26" height="26" fill="#C9B8D0"/>
      <rect x="223" y="504" width="26" height="26" fill="#C9B8D0"/>
      <rect x="379" y="504" width="26" height="26" fill="#C9B8D0"/>
      <rect x="509" y="504" width="26" height="26" fill="#C9B8D0"/>
      <rect x="561" y="504" width="26" height="26" fill="#B8A2BE"/>
      <rect x="587" y="504" width="26" height="26" fill="#C9B8D0"/>
      <rect x="613" y="504" width="26" height="26" fill="#C9B8D0"/>
      <rect x="639" y="504" width="26" height="26" fill="#B8A2BE"/>
      <rect x="665" y="504" width="26" height="26" fill="#C9B8D0"/>
      <rect x="717" y="504" width="26" height="26" fill="#B8A2BE"/>
      <rect x="743" y="504" width="26" height="26" fill="#C9B8D0"/>
      <rect x="795" y="504" width="26" height="26" fill="#B8A2BE"/>
      <rect x="951" y="504" width="26" height="26" fill="#B8A2BE"/>
      <rect x="223" y="530" width="26" height="26" fill="#B8A2BE"/>
      <rect x="249" y="530" width="26" height="26" fill="#C9B8D0"/>
      <rect x="275" y="530" width="26" height="26" fill="#C9B8D0"/>
      <rect x="301" y="530" width="26" height="26" fill="#B8A2BE"/>
      <rect x="327" y="530" width="26" height="26" fill="#C9B8D0"/>
      <rect x="353" y="530" width="26" height="26" fill="#C9B8D0"/>
      <rect x="379" y="530" width="26" height="26" fill="#B8A2BE"/>
      <rect x="431" y="530" width="26" height="26" fill="#C9B8D0"/>
      <rect x="483" y="530" width="26" height="26" fill="#C9B8D0"/>
      <rect x="535" y="530" width="26" height="26" fill="#B8A2BE"/>
      <rect x="587" y="530" width="26" height="26" fill="#C9B8D0"/>
      <rect x="639" y="530" width="26" height="26" fill="#C9B8D0"/>
      <rect x="691" y="530" width="26" height="26" fill="#B8A2BE"/>
      <rect x="743" y="530" width="26" height="26" fill="#C9B8D0"/>
      <rect x="795" y="530" width="26" height="26" fill="#C9B8D0"/>
      <rect x="821" y="530" width="26" height="26" fill="#C9B8D0"/>
      <rect x="847" y="530" width="26" height="26" fill="#B8A2BE"/>
      <rect x="873" y="530" width="26" height="26" fill="#C9B8D0"/>
      <rect x="899" y="530" width="26" height="26" fill="#C9B8D0"/>
      <rect x="925" y="530" width="26" height="26" fill="#B8A2BE"/>
      <rect x="951" y="530" width="26" height="26" fill="#C9B8D0"/>
      <rect x="457" y="556" width="26" height="26" fill="#C9B8D0"/>
      <rect x="509" y="556" width="26" height="26" fill="#B8A2BE"/>
      <rect x="561" y="556" width="26" height="26" fill="#C9B8D0"/>
      <rect x="587" y="556" width="26" height="26" fill="#B8A2BE"/>
      <rect x="639" y="556" width="26" height="26" fill="#C9B8D0"/>
      <rect x="665" y="556" width="26" height="26" fill="#B8A2BE"/>
      <rect x="691" y="556" width="26" height="26" fill="#C9B8D0"/>
      <rect x="717" y="556" width="26" height="26" fill="#C9B8D0"/>
      <rect x="743" y="556" width="26" height="26" fill="#B8A2BE"/>
      <rect x="275" y="582" width="26" height="26" fill="#C9B8D0"/>
      <rect x="327" y="582" width="26" height="26" fill="#B8A2BE"/>
      <rect x="353" y="582" width="26" height="26" fill="#C9B8D0"/>
      <rect x="379" y="582" width="26" height="26" fill="#C9B8D0"/>
      <rect x="431" y="582" width="26" height="26" fill="#C9B8D0"/>
      <rect x="483" y="582" width="26" height="26" fill="#B8A2BE"/>
      <rect x="535" y="582" width="26" height="26" fill="#C9B8D0"/>
      <rect x="561" y="582" width="26" height="26" fill="#B8A2BE"/>
      <rect x="613" y="582" width="26" height="26" fill="#C9B8D0"/>
      <rect x="691" y="582" width="26" height="26" fill="#C9B8D0"/>
      <rect x="743" y="582" width="26" height="26" fill="#C9B8D0"/>
      <rect x="769" y="582" width="26" height="26" fill="#C9B8D0"/>
      <rect x="873" y="582" width="26" height="26" fill="#B8A2BE"/>
      <rect x="951" y="582" width="26" height="26" fill="#B8A2BE"/>
      <rect x="249" y="608" width="26" height="26" fill="#C9B8D0"/>
      <rect x="275" y="608" width="26" height="26" fill="#C9B8D0"/>
      <rect x="301" y="608" width="26" height="26" fill="#B8A2BE"/>
      <rect x="353" y="608" width="26" height="26" fill="#C9B8D0"/>
      <rect x="431" y="608" width="26" height="26" fill="#C9B8D0"/>
      <rect x="457" y="608" width="26" height="26" fill="#B8A2BE"/>
      <rect x="483" y="608" width="26" height="26" fill="#C9B8D0"/>
      <rect x="587" y="608" width="26" height="26" fill="#C9B8D0"/>
      <rect x="613" y="608" width="26" height="26" fill="#B8A2BE"/>
      <rect x="691" y="608" width="26" height="26" fill="#B8A2BE"/>
      <rect x="717" y="608" width="26" height="26" fill="#C9B8D0"/>
      <rect x="769" y="608" width="26" height="26" fill="#B8A2BE"/>
      <rect x="795" y="608" width="26" height="26" fill="#C9B8D0"/>
      <rect x="821" y="608" width="26" height="26" fill="#C9B8D0"/>
      <rect x="873" y="608" width="26" height="26" fill="#C9B8D0"/>
      <rect x="951" y="608" width="26" height="26" fill="#C9B8D0"/>
      <rect x="275" y="634" width="26" height="26" fill="#B8A2BE"/>
      <rect x="353" y="634" width="26" height="26" fill="#B8A2BE"/>
      <rect x="379" y="634" width="26" height="26" fill="#C9B8D0"/>
      <rect x="457" y="634" width="26" height="26" fill="#C9B8D0"/>
      <rect x="483" y="634" width="26" height="26" fill="#C9B8D0"/>
      <rect x="691" y="634" width="26" height="26" fill="#C9B8D0"/>
      <rect x="743" y="634" width="26" height="26" fill="#B8A2BE"/>
      <rect x="873" y="634" width="26" height="26" fill="#C9B8D0"/>
      <rect x="899" y="634" width="26" height="26" fill="#B8A2BE"/>
      <rect x="925" y="634" width="26" height="26" fill="#C9B8D0"/>
      <rect x="951" y="634" width="26" height="26" fill="#C9B8D0"/>
      <rect x="223" y="660" width="26" height="26" fill="#C9B8D0"/>
      <rect x="275" y="660" width="26" height="26" fill="#C9B8D0"/>
      <rect x="301" y="660" width="26" height="26" fill="#C9B8D0"/>
      <rect x="327" y="660" width="26" height="26" fill="#B8A2BE"/>
      <rect x="405" y="660" width="26" height="26" fill="#B8A2BE"/>
      <rect x="457" y="660" width="26" height="26" fill="#C9B8D0"/>
      <rect x="509" y="660" width="26" height="26" fill="#C9B8D0"/>
      <rect x="561" y="660" width="26" height="26" fill="#B8A2BE"/>
      <rect x="613" y="660" width="26" height="26" fill="#C9B8D0"/>
      <rect x="639" y="660" width="26" height="26" fill="#B8A2BE"/>
      <rect x="717" y="660" width="26" height="26" fill="#B8A2BE"/>
      <rect x="769" y="660" width="26" height="26" fill="#C9B8D0"/>
      <rect x="795" y="660" width="26" height="26" fill="#B8A2BE"/>
      <rect x="847" y="660" width="26" height="26" fill="#C9B8D0"/>
      <rect x="925" y="660" width="26" height="26" fill="#C9B8D0"/>
      <rect x="249" y="686" width="26" height="26" fill="#C9B8D0"/>
      <rect x="275" y="686" width="26" height="26" fill="#C9B8D0"/>
      <rect x="327" y="686" width="26" height="26" fill="#C9B8D0"/>
      <rect x="379" y="686" width="26" height="26" fill="#B8A2BE"/>
      <rect x="431" y="686" width="26" height="26" fill="#C9B8D0"/>
      <rect x="457" y="686" width="26" height="26" fill="#B8A2BE"/>
      <rect x="613" y="686" width="26" height="26" fill="#B8A2BE"/>
      <rect x="639" y="686" width="26" height="26" fill="#C9B8D0"/>
      <rect x="665" y="686" width="26" height="26" fill="#C9B8D0"/>
      <rect x="743" y="686" width="26" height="26" fill="#C9B8D0"/>
      <rect x="795" y="686" width="26" height="26" fill="#C9B8D0"/>
      <rect x="821" y="686" width="26" height="26" fill="#C9B8D0"/>
      <rect x="223" y="712" width="26" height="26" fill="#C9B8D0"/>
      <rect x="249" y="712" width="26" height="26" fill="#C9B8D0"/>
      <rect x="327" y="712" width="26" height="26" fill="#C9B8D0"/>
      <rect x="353" y="712" width="26" height="26" fill="#B8A2BE"/>
      <rect x="405" y="712" width="26" height="26" fill="#C9B8D0"/>
      <rect x="457" y="712" width="26" height="26" fill="#C9B8D0"/>
      <rect x="509" y="712" width="26" height="26" fill="#B8A2BE"/>
      <rect x="535" y="712" width="26" height="26" fill="#C9B8D0"/>
      <rect x="639" y="712" width="26" height="26" fill="#C9B8D0"/>
      <rect x="691" y="712" width="26" height="26" fill="#C9B8D0"/>
      <rect x="743" y="712" width="26" height="26" fill="#B8A2BE"/>
      <rect x="769" y="712" width="26" height="26" fill="#C9B8D0"/>
      <rect x="795" y="712" width="26" height="26" fill="#C9B8D0"/>
      <rect x="821" y="712" width="26" height="26" fill="#B8A2BE"/>
      <rect x="925" y="712" width="26" height="26" fill="#C9B8D0"/>
      <rect x="951" y="712" width="26" height="26" fill="#C9B8D0"/>
      <rect x="223" y="738" width="26" height="26" fill="#C9B8D0"/>
      <rect x="249" y="738" width="26" height="26" fill="#B8A2BE"/>
      <rect x="301" y="738" width="26" height="26" fill="#C9B8D0"/>
      <rect x="327" y="738" width="26" height="26" fill="#B8A2BE"/>
      <rect x="353" y="738" width="26" height="26" fill="#C9B8D0"/>
      <rect x="379" y="738" width="26" height="26" fill="#C9B8D0"/>
      <rect x="431" y="738" width="26" height="26" fill="#C9B8D0"/>
      <rect x="483" y="738" width="26" height="26" fill="#B8A2BE"/>
      <rect x="509" y="738" width="26" height="26" fill="#C9B8D0"/>
      <rect x="535" y="738" width="26" height="26" fill="#C9B8D0"/>
      <rect x="561" y="738" width="26" height="26" fill="#B8A2BE"/>
      <rect x="613" y="738" width="26" height="26" fill="#C9B8D0"/>
      <rect x="665" y="738" width="26" height="26" fill="#C9B8D0"/>
      <rect x="691" y="738" width="26" height="26" fill="#C9B8D0"/>
      <rect x="743" y="738" width="26" height="26" fill="#C9B8D0"/>
      <rect x="769" y="738" width="26" height="26" fill="#C9B8D0"/>
      <rect x="821" y="738" width="26" height="26" fill="#C9B8D0"/>
      <rect x="899" y="738" width="26" height="26" fill="#C9B8D0"/>
      <rect x="925" y="738" width="26" height="26" fill="#C9B8D0"/>
      <rect x="951" y="738" width="26" height="26" fill="#B8A2BE"/>
      <rect x="249" y="764" width="26" height="26" fill="#C9B8D0"/>
      <rect x="301" y="764" width="26" height="26" fill="#B8A2BE"/>
      <rect x="431" y="764" width="26" height="26" fill="#C9B8D0"/>
      <rect x="457" y="764" width="26" height="26" fill="#B8A2BE"/>
      <rect x="483" y="764" width="26" height="26" fill="#C9B8D0"/>
      <rect x="587" y="764" width="26" height="26" fill="#C9B8D0"/>
      <rect x="613" y="764" width="26" height="26" fill="#B8A2BE"/>
      <rect x="639" y="764" width="26" height="26" fill="#C9B8D0"/>
      <rect x="665" y="764" width="26" height="26" fill="#C9B8D0"/>
      <rect x="691" y="764" width="26" height="26" fill="#B8A2BE"/>
      <rect x="743" y="764" width="26" height="26" fill="#C9B8D0"/>
      <rect x="769" y="764" width="26" height="26" fill="#B8A2BE"/>
      <rect x="795" y="764" width="26" height="26" fill="#C9B8D0"/>
      <rect x="821" y="764" width="26" height="26" fill="#C9B8D0"/>
      <rect x="925" y="764" width="26" height="26" fill="#B8A2BE"/>
      <rect x="223" y="790" width="26" height="26" fill="#C9B8D0"/>
      <rect x="249" y="790" width="26" height="26" fill="#C9B8D0"/>
      <rect x="275" y="790" width="26" height="26" fill="#B8A2BE"/>
      <rect x="301" y="790" width="26" height="26" fill="#C9B8D0"/>
      <rect x="379" y="790" width="26" height="26" fill="#C9B8D0"/>
      <rect x="483" y="790" width="26" height="26" fill="#C9B8D0"/>
      <rect x="509" y="790" width="26" height="26" fill="#B8A2BE"/>
      <rect x="535" y="790" width="26" height="26" fill="#C9B8D0"/>
      <rect x="561" y="790" width="26" height="26" fill="#C9B8D0"/>
      <rect x="613" y="790" width="26" height="26" fill="#C9B8D0"/>
      <rect x="665" y="790" width="26" height="26" fill="#B8A2BE"/>
      <rect x="691" y="790" width="26" height="26" fill="#C9B8D0"/>
      <rect x="769" y="790" width="26" height="26" fill="#C9B8D0"/>
      <rect x="795" y="790" width="26" height="26" fill="#C9B8D0"/>
      <rect x="873" y="790" width="26" height="26" fill="#C9B8D0"/>
      <rect x="925" y="790" width="26" height="26" fill="#C9B8D0"/>
      <rect x="951" y="790" width="26" height="26" fill="#C9B8D0"/>
      <rect x="249" y="816" width="26" height="26" fill="#B8A2BE"/>
      <rect x="275" y="816" width="26" height="26" fill="#C9B8D0"/>
      <rect x="301" y="816" width="26" height="26" fill="#C9B8D0"/>
      <rect x="353" y="816" width="26" height="26" fill="#C9B8D0"/>
      <rect x="431" y="816" width="26" height="26" fill="#C9B8D0"/>
      <rect x="457" y="816" width="26" height="26" fill="#C9B8D0"/>
      <rect x="483" y="816" width="26" height="26" fill="#B8A2BE"/>
      <rect x="587" y="816" width="26" height="26" fill="#C9B8D0"/>
      <rect x="639" y="816" width="26" height="26" fill="#B8A2BE"/>
      <rect x="665" y="816" width="26" height="26" fill="#C9B8D0"/>
      <rect x="743" y="816" width="26" height="26" fill="#C9B8D0"/>
      <rect x="769" y="816" width="26" height="26" fill="#C9B8D0"/>
      <rect x="795" y="816" width="26" height="26" fill="#B8A2BE"/>
      <rect x="925" y="816" width="26" height="26" fill="#C9B8D0"/>
      <rect x="951" y="816" width="26" height="26" fill="#B8A2BE"/>
      <rect x="223" y="842" width="26" height="26" fill="#B8A2BE"/>
      <rect x="301" y="842" width="26" height="26" fill="#B8A2BE"/>
      <rect x="379" y="842" width="26" height="26" fill="#B8A2BE"/>
      <rect x="457" y="842" width="26" height="26" fill="#B8A2BE"/>
      <rect x="483" y="842" width="26" height="26" fill="#C9B8D0"/>
      <rect x="509" y="842" width="26" height="26" fill="#C9B8D0"/>
      <rect x="561" y="842" width="26" height="26" fill="#C9B8D0"/>
      <rect x="587" y="842" width="26" height="26" fill="#C9B8D0"/>
      <rect x="613" y="842" width="26" height="26" fill="#B8A2BE"/>
      <rect x="665" y="842" width="26" height="26" fill="#C9B8D0"/>
      <rect x="743" y="842" width="26" height="26" fill="#C9B8D0"/>
      <rect x="769" y="842" width="26" height="26" fill="#B8A2BE"/>
      <rect x="821" y="842" width="26" height="26" fill="#C9B8D0"/>
      <rect x="873" y="842" width="26" height="26" fill="#C9B8D0"/>
      <rect x="899" y="842" width="26" height="26" fill="#C9B8D0"/>
      <rect x="925" y="842" width="26" height="26" fill="#B8A2BE"/>
      <rect x="951" y="842" width="26" height="26" fill="#C9B8D0"/>
      <rect x="249" y="868" width="26" height="26" fill="#C9B8D0"/>
      <rect x="275" y="868" width="26" height="26" fill="#B8A2BE"/>
      <rect x="301" y="868" width="26" height="26" fill="#C9B8D0"/>
      <rect x="327" y="868" width="26" height="26" fill="#C9B8D0"/>
      <rect x="405" y="868" width="26" height="26" fill="#C9B8D0"/>
      <rect x="457" y="868" width="26" height="26" fill="#C9B8D0"/>
      <rect x="509" y="868" width="26" height="26" fill="#B8A2BE"/>
      <rect x="613" y="868" width="26" height="26" fill="#C9B8D0"/>
      <rect x="639" y="868" width="26" height="26" fill="#9A3CFF"/>
      <rect x="665" y="868" width="26" height="26" fill="#B8A2BE"/>
      <rect x="717" y="868" width="26" height="26" fill="#C9B8D0"/>
      <rect x="795" y="868" width="26" height="26" fill="#C9B8D0"/>
      <rect x="847" y="868" width="26" height="26" fill="#C9B8D0"/>
      <rect x="925" y="868" width="26" height="26" fill="#C9B8D0"/>
      <rect x="951" y="868" width="26" height="26" fill="#C9B8D0"/>
      <rect x="223" y="894" width="26" height="26" fill="#C9B8D0"/>
      <rect x="301" y="894" width="26" height="26" fill="#C9B8D0"/>
      <rect x="353" y="894" width="26" height="26" fill="#C9B8D0"/>
      <rect x="379" y="894" width="26" height="26" fill="#C9B8D0"/>
      <rect x="431" y="894" width="26" height="26" fill="#C9B8D0"/>
      <rect x="457" y="894" width="26" height="26" fill="#C9B8D0"/>
      <rect x="483" y="894" width="26" height="26" fill="#B8A2BE"/>
      <rect x="535" y="894" width="26" height="26" fill="#C9B8D0"/>
      <rect x="561" y="894" width="26" height="26" fill="#B8A2BE"/>
      <rect x="613" y="894" width="26" height="26" fill="#C9B8D0"/>
      <rect x="743" y="894" width="26" height="26" fill="#C9B8D0"/>
      <rect x="769" y="894" width="26" height="26" fill="#C9B8D0"/>
      <rect x="795" y="894" width="26" height="26" fill="#B8A2BE"/>
      <rect x="821" y="894" width="26" height="26" fill="#C9B8D0"/>
      <rect x="847" y="894" width="26" height="26" fill="#C9B8D0"/>
      <rect x="925" y="894" width="26" height="26" fill="#C9B8D0"/>
      <rect x="951" y="894" width="26" height="26" fill="#B8A2BE"/>
      <rect x="431" y="920" width="26" height="26" fill="#C9B8D0"/>
      <rect x="509" y="920" width="26" height="26" fill="#C9B8D0"/>
      <rect x="535" y="920" width="26" height="26" fill="#B8A2BE"/>
      <rect x="639" y="920" width="26" height="26" fill="#C9B8D0"/>
      <rect x="665" y="920" width="26" height="26" fill="#C9B8D0"/>
      <rect x="691" y="920" width="26" height="26" fill="#B8A2BE"/>
      <rect x="743" y="920" width="26" height="26" fill="#C9B8D0"/>
      <rect x="847" y="920" width="26" height="26" fill="#B8A2BE"/>
      <rect x="925" y="920" width="26" height="26" fill="#B8A2BE"/>
      <rect x="951" y="920" width="26" height="26" fill="#C9B8D0"/>
      <rect x="223" y="946" width="26" height="26" fill="#C9B8D0"/>
      <rect x="249" y="946" width="26" height="26" fill="#C9B8D0"/>
      <rect x="275" y="946" width="26" height="26" fill="#B8A2BE"/>
      <rect x="301" y="946" width="26" height="26" fill="#C9B8D0"/>
      <rect x="327" y="946" width="26" height="26" fill="#C9B8D0"/>
      <rect x="353" y="946" width="26" height="26" fill="#B8A2BE"/>
      <rect x="379" y="946" width="26" height="26" fill="#C9B8D0"/>
      <rect x="483" y="946" width="26" height="26" fill="#C9B8D0"/>
      <rect x="509" y="946" width="26" height="26" fill="#B8A2BE"/>
      <rect x="535" y="946" width="26" height="26" fill="#C9B8D0"/>
      <rect x="561" y="946" width="26" height="26" fill="#C9B8D0"/>
      <rect x="587" y="946" width="26" height="26" fill="#B8A2BE"/>
      <rect x="613" y="946" width="26" height="26" fill="#C9B8D0"/>
      <rect x="665" y="946" width="26" height="26" fill="#B8A2BE"/>
      <rect x="691" y="946" width="26" height="26" fill="#C9B8D0"/>
      <rect x="717" y="946" width="26" height="26" fill="#C9B8D0"/>
      <rect x="743" y="946" width="26" height="26" fill="#B8A2BE"/>
      <rect x="795" y="946" width="26" height="26" fill="#C9B8D0"/>
      <rect x="847" y="946" width="26" height="26" fill="#9A3CFF"/>
      <rect x="899" y="946" width="26" height="26" fill="#B8A2BE"/>
      <rect x="925" y="946" width="26" height="26" fill="#C9B8D0"/>
      <rect x="951" y="946" width="26" height="26" fill="#C9B8D0"/>
      <rect x="223" y="972" width="26" height="26" fill="#C9B8D0"/>
      <rect x="379" y="972" width="26" height="26" fill="#C9B8D0"/>
      <rect x="431" y="972" width="26" height="26" fill="#C9B8D0"/>
      <rect x="509" y="972" width="26" height="26" fill="#C9B8D0"/>
      <rect x="587" y="972" width="26" height="26" fill="#C9B8D0"/>
      <rect x="613" y="972" width="26" height="26" fill="#C9B8D0"/>
      <rect x="665" y="972" width="26" height="26" fill="#C9B8D0"/>
      <rect x="691" y="972" width="26" height="26" fill="#C9B8D0"/>
      <rect x="743" y="972" width="26" height="26" fill="#C9B8D0"/>
      <rect x="847" y="972" width="26" height="26" fill="#C9B8D0"/>
      <rect x="925" y="972" width="26" height="26" fill="#C9B8D0"/>
      <rect x="223" y="998" width="26" height="26" fill="#B8A2BE"/>
      <rect x="275" y="998" width="26" height="26" fill="#C9B8D0"/>
      <rect x="301" y="998" width="26" height="26" fill="#B8A2BE"/>
      <rect x="327" y="998" width="26" height="26" fill="#C9B8D0"/>
      <rect x="379" y="998" width="26" height="26" fill="#B8A2BE"/>
      <rect x="431" y="998" width="26" height="26" fill="#C9B8D0"/>
      <rect x="483" y="998" width="26" height="26" fill="#C9B8D0"/>
      <rect x="509" y="998" width="26" height="26" fill="#C9B8D0"/>
      <rect x="561" y="998" width="26" height="26" fill="#C9B8D0"/>
      <rect x="639" y="998" width="26" height="26" fill="#9A3CFF"/>
      <rect x="691" y="998" width="26" height="26" fill="#B8A2BE"/>
      <rect x="743" y="998" width="26" height="26" fill="#C9B8D0"/>
      <rect x="769" y="998" width="26" height="26" fill="#9A3CFF"/>
      <rect x="795" y="998" width="26" height="26" fill="#C9B8D0"/>
      <rect x="821" y="998" width="26" height="26" fill="#C9B8D0"/>
      <rect x="847" y="998" width="26" height="26" fill="#B8A2BE"/>
      <rect x="873" y="998" width="26" height="26" fill="#C9B8D0"/>
      <rect x="925" y="998" width="26" height="26" fill="#B8A2BE"/>
      <rect x="223" y="1024" width="26" height="26" fill="#C9B8D0"/>
      <rect x="275" y="1024" width="26" height="26" fill="#B8A2BE"/>
      <rect x="301" y="1024" width="26" height="26" fill="#C9B8D0"/>
      <rect x="327" y="1024" width="26" height="26" fill="#C9B8D0"/>
      <rect x="379" y="1024" width="26" height="26" fill="#C9B8D0"/>
      <rect x="457" y="1024" width="26" height="26" fill="#C9B8D0"/>
      <rect x="483" y="1024" width="26" height="26" fill="#C9B8D0"/>
      <rect x="535" y="1024" width="26" height="26" fill="#C9B8D0"/>
      <rect x="613" y="1024" width="26" height="26" fill="#C9B8D0"/>
      <rect x="639" y="1024" width="26" height="26" fill="#C9B8D0"/>
      <rect x="743" y="1024" width="26" height="26" fill="#9A3CFF"/>
      <rect x="769" y="1024" width="26" height="26" fill="#C9B8D0"/>
      <rect x="847" y="1024" width="26" height="26" fill="#C9B8D0"/>
      <rect x="899" y="1024" width="26" height="26" fill="#B8A2BE"/>
      <rect x="223" y="1050" width="26" height="26" fill="#C9B8D0"/>
      <rect x="275" y="1050" width="26" height="26" fill="#C9B8D0"/>
      <rect x="301" y="1050" width="26" height="26" fill="#C9B8D0"/>
      <rect x="327" y="1050" width="26" height="26" fill="#B8A2BE"/>
      <rect x="379" y="1050" width="26" height="26" fill="#C9B8D0"/>
      <rect x="431" y="1050" width="26" height="26" fill="#C9B8D0"/>
      <rect x="457" y="1050" width="26" height="26" fill="#C9B8D0"/>
      <rect x="483" y="1050" width="26" height="26" fill="#B8A2BE"/>
      <rect x="509" y="1050" width="26" height="26" fill="#C9B8D0"/>
      <rect x="561" y="1050" width="26" height="26" fill="#B8A2BE"/>
      <rect x="613" y="1050" width="26" height="26" fill="#C9B8D0"/>
      <rect x="717" y="1050" width="26" height="26" fill="#B8A2BE"/>
      <rect x="821" y="1050" width="26" height="26" fill="#C9B8D0"/>
      <rect x="847" y="1050" width="26" height="26" fill="#C9B8D0"/>
      <rect x="873" y="1050" width="26" height="26" fill="#B8A2BE"/>
      <rect x="899" y="1050" width="26" height="26" fill="#C9B8D0"/>
      <rect x="951" y="1050" width="26" height="26" fill="#B8A2BE"/>
      <rect x="223" y="1076" width="26" height="26" fill="#B8A2BE"/>
      <rect x="379" y="1076" width="26" height="26" fill="#B8A2BE"/>
      <rect x="457" y="1076" width="26" height="26" fill="#B8A2BE"/>
      <rect x="535" y="1076" width="26" height="26" fill="#B8A2BE"/>
      <rect x="587" y="1076" width="26" height="26" fill="#C9B8D0"/>
      <rect x="665" y="1076" width="26" height="26" fill="#C9B8D0"/>
      <rect x="691" y="1076" width="26" height="26" fill="#B8A2BE"/>
      <rect x="743" y="1076" width="26" height="26" fill="#C9B8D0"/>
      <rect x="769" y="1076" width="26" height="26" fill="#B8A2BE"/>
      <rect x="821" y="1076" width="26" height="26" fill="#C9B8D0"/>
      <rect x="925" y="1076" width="26" height="26" fill="#B8A2BE"/>
      <rect x="223" y="1102" width="26" height="26" fill="#C9B8D0"/>
      <rect x="249" y="1102" width="26" height="26" fill="#C9B8D0"/>
      <rect x="275" y="1102" width="26" height="26" fill="#B8A2BE"/>
      <rect x="301" y="1102" width="26" height="26" fill="#C9B8D0"/>
      <rect x="327" y="1102" width="26" height="26" fill="#C9B8D0"/>
      <rect x="353" y="1102" width="26" height="26" fill="#B8A2BE"/>
      <rect x="379" y="1102" width="26" height="26" fill="#C9B8D0"/>
      <rect x="509" y="1102" width="26" height="26" fill="#9A3CFF"/>
      <rect x="639" y="1102" width="26" height="26" fill="#C9B8D0"/>
      <rect x="717" y="1102" width="26" height="26" fill="#C9B8D0"/>
      <rect x="743" y="1102" width="26" height="26" fill="#B8A2BE"/>
      <rect x="769" y="1102" width="26" height="26" fill="#C9B8D0"/>
      <rect x="795" y="1102" width="26" height="26" fill="#C9B8D0"/>
      <rect x="847" y="1102" width="26" height="26" fill="#C9B8D0"/>
      <rect x="925" y="1102" width="26" height="26" fill="#C9B8D0"/>
      <rect x="951" y="1102" width="26" height="26" fill="#C9B8D0"/>
    </g>
  </g>

  <g id="metadata">
    <rect x="126" y="1254" width="442" height="116" fill="none" stroke="#6B6C72" stroke-width="2"/>
    <rect x="632" y="1254" width="442" height="116" fill="none" stroke="#6B6C72" stroke-width="2"/>
    <path d="M126 1240h948M126 1388h948" stroke="#9A3CFF" stroke-width="2" stroke-dasharray="12 12" opacity=".55"/>
    <text x="154" y="1296" fill="#A9AAB2" font-family="Consolas, monospace" font-size="20" letter-spacing="3">NODE</text>
    <text x="154" y="1338" fill="#EAEAF2" font-family="Consolas, monospace" font-size="28" font-weight="700">OPERATOR INTAKE</text>
    <text x="660" y="1296" fill="#A9AAB2" font-family="Consolas, monospace" font-size="20" letter-spacing="3">CLEARANCE</text>
    <text x="660" y="1338" fill="#EAEAF2" font-family="Consolas, monospace" font-size="28" font-weight="700">THREADBREAKER</text>
    <rect x="126" y="1412" width="948" height="58" fill="none" stroke="#6B6C72" stroke-width="2"/>
    <text x="154" y="1450" fill="#A9AAB2" font-family="Consolas, monospace" font-size="18">STATIC DIRECT URL // ECC-H // GENERATED 2026-07-08T17:33:45Z</text>
  </g>

  <g id="footer">
    <text x="600" y="1514" fill="#EAEAF2" font-family="Consolas, monospace" font-size="20" text-anchor="middle" letter-spacing="3">HUMAN AUTHORIZATION PARTIAL. SURVIVAL AUTHORIZATION ACTIVE.</text>
  </g>
</svg>
